<svg width="1440" height="560" viewBox="0 0 1440 560" fill="none" xmlns="http://www.w3.org/2000/svg">
<g clip-path="url(#clip0_35_675)">
<mask id="mask0_35_675" style="mask-type:luminance" maskUnits="userSpaceOnUse" x="0" y="0" width="1440" height="560">
<path d="M1440 0H0V560H1440V0Z" fill="white"/>
</mask>
<g mask="url(#mask0_35_675)">
<path d="M1440 0H0V560H1440V0Z" fill="url(#paint0_linear_35_675)"/>
<path d="M1300.07 332.435C1326.36 331.381 1347.53 313.592 1360.88 290.932C1374.49 267.846 1382.53 239.151 1368.51 216.315C1354.92 194.194 1326.03 191.685 1300.07 191.903C1274.64 192.117 1247.77 196.317 1233.61 217.45C1217.93 240.835 1216.1 271.8 1230.19 296.172C1244.27 320.524 1271.97 333.562 1300.07 332.435Z" fill="#6D8DB0" fill-opacity="0.57"/>
<path d="M758.689 212.471C787.951 212.666 812.686 193.334 827.559 168.132C842.716 142.449 849.096 110.608 833.973 84.9048C819.021 59.4908 788.175 51.1218 758.689 51.0788C729.11 51.0358 697.852 59.0908 683.022 84.6838C668.162 110.33 676.288 141.722 691.39 167.226C706.152 192.155 729.718 212.278 758.689 212.471Z" fill="#6D8DB0" fill-opacity="0.57"/>
<path d="M1413.33 677.307C1462.64 675.949 1502.94 644.172 1529.42 602.547C1558.49 556.838 1582.87 500.185 1555.84 453.239C1528.78 406.235 1467.56 400.97 1413.33 400.923C1358.97 400.876 1298.79 406.657 1270.38 452.994C1241.06 500.817 1255.46 561.958 1285.6 609.263C1313.39 652.865 1361.64 678.731 1413.33 677.307Z" fill="#6D8DB0" fill-opacity="0.57"/>
<path d="M80.0472 114.813C102.346 113.825 123.746 105.064 135.542 86.1147C148.044 66.0317 149.883 41.0367 139.072 19.9957C127.254 -3.00334 105.899 -21.3153 80.0472 -21.8893C53.3262 -22.4823 29.5562 -5.93934 16.3012 17.2707C3.15818 40.2837 0.823177 69.2587 15.3212 91.4437C28.7702 112.024 55.4862 115.902 80.0472 114.813Z" fill="#6D8DB0" fill-opacity="0.57"/>
<path d="M48.9231 284.092C78.0491 285.358 108.136 276.839 124.153 252.48C141.713 225.774 144.985 190.484 128.466 163.122C112.401 136.512 79.9641 126.257 48.9231 127.873C20.7341 129.341 -3.93385 145.945 -17.4579 170.721C-30.4149 194.459 -29.4378 223.06 -15.7729 246.398C-2.25585 269.483 22.1971 282.93 48.9231 284.092Z" fill="#6D8DB0" fill-opacity="0.57"/>
<path d="M1172.17 136.53C1172.17 185.054 1191.45 231.59 1225.76 265.902C1260.07 300.214 1306.61 319.49 1355.13 319.49C1403.65 319.49 1450.19 300.214 1484.5 265.902C1518.81 231.59 1538.09 185.054 1538.09 136.53C1538.09 88.0058 1518.81 41.4692 1484.5 7.15757C1450.19 -27.1541 1403.65 -46.4302 1355.13 -46.4302C1306.61 -46.4302 1260.07 -27.1541 1225.76 7.15757C1191.45 41.4692 1172.17 88.0058 1172.17 136.53Z" fill="#6D8DB0" fill-opacity="0.57"/>
<path d="M39.1802 488.85C39.1802 517.185 50.4365 544.361 70.4729 564.397C90.5093 584.433 117.684 595.69 146.02 595.69C174.356 595.69 201.531 584.433 221.567 564.397C241.604 544.361 252.86 517.185 252.86 488.85C252.86 460.514 241.604 433.339 221.567 413.302C201.531 393.266 174.356 382.01 146.02 382.01C117.684 382.01 90.5093 393.266 70.4729 413.302C50.4365 433.339 39.1802 460.514 39.1802 488.85Z" fill="#6D8DB0" fill-opacity="0.57"/>
<path d="M220.042 391.443C252.556 389.41 277.624 365.471 293.011 336.756C307.442 309.824 309.51 278.233 295.157 251.259C279.86 222.511 252.558 201.417 220.042 199.624C184.223 197.648 147.86 211.547 129.058 242.098C109.417 274.012 109.85 314.986 129.347 346.989C148.121 377.806 184.027 393.695 220.042 391.443Z" fill="#6D8DB0" fill-opacity="0.57"/>
<path d="M416.821 484.238C434.573 484.146 450.563 474.38 459.725 459.175C469.211 443.431 472.225 423.639 462.865 407.82C453.646 392.24 434.922 386.415 416.821 386.667C399.222 386.912 381.986 393.971 372.944 409.072C363.666 424.568 364.033 444.026 373.138 459.624C382.168 475.094 398.908 484.331 416.821 484.238Z" fill="#6D8DB0" fill-opacity="0.57"/>
<path d="M1049.19 472.64C1049.19 494.79 1053.55 516.723 1062.03 537.187C1070.51 557.651 1082.93 576.245 1098.59 591.907C1114.25 607.57 1132.85 619.994 1153.31 628.47C1173.78 636.947 1195.71 641.31 1217.86 641.31C1240.01 641.31 1261.94 636.947 1282.41 628.47C1302.87 619.994 1321.47 607.57 1337.13 591.907C1352.79 576.245 1365.21 557.651 1373.69 537.187C1382.17 516.723 1386.53 494.79 1386.53 472.64C1386.53 450.49 1382.17 428.556 1373.69 408.092C1365.21 387.629 1352.79 369.034 1337.13 353.372C1321.47 337.71 1302.87 325.285 1282.41 316.809C1261.94 308.332 1240.01 303.97 1217.86 303.97C1195.71 303.97 1173.78 308.332 1153.31 316.809C1132.85 325.285 1114.25 337.71 1098.59 353.372C1082.93 369.034 1070.51 387.629 1062.03 408.092C1053.55 428.556 1049.19 450.49 1049.19 472.64Z" fill="#6D8DB0" fill-opacity="0.57"/>
<path d="M873.863 191.305C892.472 191.979 911.349 186.43 921.904 171.089C933.996 153.514 939.189 130.271 928.597 111.753C917.949 93.1359 895.276 85.8839 873.863 87.0959C854.525 88.1909 837.907 100.247 828.905 117.397C820.523 133.367 822.122 152.406 831.495 167.815C840.49 182.602 856.566 190.679 873.863 191.305Z" fill="#6D8DB0" fill-opacity="0.57"/>
</g>
</g>
<defs>
<linearGradient id="paint0_linear_35_675" x1="50" y1="100" x2="50" y2="0" gradientUnits="userSpaceOnUse">
<stop stop-color="#3A6490"/>
<stop offset="1" stop-color="#3C4A82"/>
</linearGradient>
<clipPath id="clip0_35_675">
<rect width="1440" height="560" fill="white"/>
</clipPath>
</defs>
</svg>
