<svg xmlns="http://www.w3.org/2000/svg" version="1.1" xmlns:xlink="http://www.w3.org/1999/xlink" xmlns:svgjs="http://svgjs.dev/svgjs" width="1440" height="560" preserveAspectRatio="none" viewBox="0 0 1440 560"><g mask="url(&quot;#SvgjsMask2858&quot;)" fill="none"><rect width="1440" height="560" x="0" y="0" fill="url(&quot;#SvgjsLinearGradient2859&quot;)"></rect><path d="M0 0L114.53 0L0 76.99z" fill="rgba(255, 255, 255, .1)"></path><path d="M0 76.99L114.53 0L149.82999999999998 0L0 284.57z" fill="rgba(255, 255, 255, .075)"></path><path d="M0 284.57L149.82999999999998 0L637.02 0L0 443.39z" fill="rgba(255, 255, 255, .05)"></path><path d="M0 443.39L637.02 0L745.46 0L0 471.94z" fill="rgba(255, 255, 255, .025)"></path><path d="M1440 560L949.35 560L1440 430.61z" fill="rgba(0, 0, 0, .1)"></path><path d="M1440 430.61L949.35 560L503.98 560L1440 306.98z" fill="rgba(0, 0, 0, .075)"></path><path d="M1440 306.98L503.98 560L323.57000000000005 560L1440 249.04000000000002z" fill="rgba(0, 0, 0, .05)"></path><path d="M1440 249.04000000000002L323.56999999999994 560L267.86999999999995 560L1440 145.07000000000002z" fill="rgba(0, 0, 0, .025)"></path></g><defs><mask id="SvgjsMask2858"><rect width="1440" height="560" fill="#ffffff"></rect></mask><linearGradient x1="84.72%" y1="139.29%" x2="15.28%" y2="-39.29%" gradientUnits="userSpaceOnUse" id="SvgjsLinearGradient2859"><stop stop-color="rgba(194, 213, 255, 1)" offset="0"></stop><stop stop-color="rgba(233, 240, 255, 1)" offset="0.53"></stop><stop stop-color="rgba(255, 255, 255, 1)" offset="1"></stop></linearGradient></defs></svg>