<svg width="1440" height="2878" viewBox="0 0 1440 2878" fill="none" xmlns="http://www.w3.org/2000/svg">
<g clip-path="url(#clip0_56_2)">
<path d="M1469.92 160.913C870.127 182.691 1211.28 701.015 870.127 703.425C528.965 705.835 615.793 664.732 287.631 664.742C-76.7682 699.839 -43.081 1007.55 -209.561 1007.82" stroke="#EFEFEF" stroke-width="2"/>
<path d="M1466.44 145.355C1068.24 174.342 1447.56 696.01 921.839 672.004C318.063 613.486 70.4218 868.243 -190.028 788.543" stroke="#EFEFEF" stroke-width="2"/>
<path d="M1513.41 394.63C1050.4 312.155 1228.77 833.146 765.713 788.216C74.9552 709.086 59.5561 993.181 -117.217 845.618" stroke="#EFEFEF" stroke-width="2"/>
<path d="M1535.83 329.03C984.059 217.48 1082.76 730.998 591.214 807.053C107.36 846.013 159.361 785.28 -74.6909 829.685" stroke="#EFEFEF" stroke-width="2"/>
<path d="M1474.66 216.324C1243.57 201.767 1208.99 290.929 1073.69 598.025C947.991 883.345 344.713 596.355 -140.612 829.685" stroke="#EFEFEF" stroke-width="2"/>
<path d="M-154.624 863.587C445.166 882.2 104.019 1325.19 445.166 1327.25C786.329 1329.31 699.501 1294.18 1027.66 1294.19C1392.06 1324.18 1358.37 1587.17 1524.85 1587.4" stroke="#EFEFEF" stroke-width="2"/>
<path d="M-151.143 850.29C247.058 875.064 -132.263 1320.91 393.455 1300.39C997.23 1250.38 1244.87 1468.11 1505.32 1399.99" stroke="#EFEFEF" stroke-width="2"/>
<path d="M-198.118 1063.33C271.541 992.846 90.6061 1438.11 560.308 1399.71C1260.98 1332.09 1276.6 1574.89 1455.91 1448.77" stroke="#EFEFEF" stroke-width="2"/>
<path d="M-220.537 1007.27C357.698 911.933 254.262 1350.81 769.383 1415.81C1276.44 1449.11 1221.95 1397.2 1467.22 1435.16" stroke="#EFEFEF" stroke-width="2"/>
<path d="M-159.365 910.944C71.7289 898.503 106.302 974.706 241.599 1237.17C367.303 1481.02 970.581 1235.74 1455.91 1435.15" stroke="#EFEFEF" stroke-width="2"/>
<path d="M1506.76 2549.1C906.972 2527.33 1248.12 2009 906.972 2006.59C565.81 2004.18 652.638 2045.28 324.476 2045.27C-39.9232 2010.18 -6.23604 1702.47 -172.716 1702.2" stroke="#EFEFEF" stroke-width="2"/>
<path d="M1503.28 2564.66C1105.08 2535.67 1484.4 2014.01 958.684 2038.01C354.908 2096.53 107.267 1841.77 -153.183 1921.47" stroke="#EFEFEF" stroke-width="2"/>
<path d="M1550.26 2315.39C1087.24 2397.86 1265.62 1876.87 802.558 1921.8C111.8 2000.93 96.401 1716.83 -80.3721 1864.4" stroke="#EFEFEF" stroke-width="2"/>
<path d="M1572.68 2380.99C1020.9 2492.54 1119.61 1979.02 628.059 1902.96C144.205 1864 196.206 1924.74 -37.8459 1880.33" stroke="#EFEFEF" stroke-width="2"/>
<path d="M1511.5 2493.69C1280.41 2508.25 1245.84 2419.09 1110.54 2111.99C984.836 1826.67 381.558 2113.66 -103.768 1880.33" stroke="#EFEFEF" stroke-width="2"/>
</g>
<defs>
<clipPath id="clip0_56_2">
<rect width="1440" height="2878" fill="white"/>
</clipPath>
</defs>
</svg>
