<svg width="1440" height="2878" viewBox="0 0 1440 2878" fill="none" xmlns="http://www.w3.org/2000/svg">
<g clip-path="url(#clip0_56_2)">
<path d="M1469.92 160.913C870.127 182.691 1211.28 701.015 870.127 703.425C528.965 705.835 615.793 664.732 287.631 664.742C-76.7682 699.839 -43.081 1007.55 -209.561 1007.82" stroke="#EFEFEF" stroke-width="2"/>
<path d="M1466.44 145.355C1068.24 174.342 1447.56 696.01 921.839 672.004C318.063 613.486 70.4218 868.243 -190.028 788.543" stroke="#EFEFEF" stroke-width="2"/>
<path d="M1513.41 394.63C1050.4 312.155 1228.77 833.146 765.713 788.216C74.9552 709.086 59.5561 993.181 -117.217 845.618" stroke="#EFEFEF" stroke-width="2"/>
<path d="M1535.83 329.03C984.059 217.48 1082.76 730.998 591.214 807.053C107.36 846.013 159.361 785.28 -74.6909 829.685" stroke="#EFEFEF" stroke-width="2"/>
<path d="M1474.66 216.324C1243.57 201.767 1208.99 290.929 1073.69 598.025C947.991 883.345 344.713 596.355 -140.612 829.685" stroke="#EFEFEF" stroke-width="2"/>
</g>
<defs>
<clipPath id="clip0_56_2">
<rect width="1440" height="2878" fill="white"/>
</clipPath>
</defs>
</svg>
