<svg width="1440" height="2878" viewBox="0 0 1440 2878" fill="none" xmlns="http://www.w3.org/2000/svg">
<g clip-path="url(#clip0_56_2)">
<path d="M1469.92 244.904C870.127 266.683 1211.28 785.007 870.127 787.417C528.965 789.827 615.793 748.724 287.631 748.734C-76.7682 783.831 -43.081 1091.54 -209.561 1091.81" stroke="#EFEFEF" stroke-width="2"/>
<path d="M1466.44 229.346C1068.24 258.333 1447.56 780.002 921.839 755.996C318.063 697.477 70.4218 952.235 -190.028 872.534" stroke="#EFEFEF" stroke-width="2"/>
<path d="M1513.41 478.621C1050.4 396.146 1228.77 917.138 765.713 872.208C74.9552 793.078 59.5561 1077.17 -117.217 929.61" stroke="#EFEFEF" stroke-width="2"/>
<path d="M1535.83 413.022C984.059 301.472 1082.76 814.99 591.214 891.044C107.36 930.005 159.361 869.271 -74.6909 913.677" stroke="#EFEFEF" stroke-width="2"/>
<path d="M1474.66 300.316C1243.57 285.759 1208.99 374.921 1073.69 682.017C947.991 967.337 344.713 680.347 -140.612 913.676" stroke="#EFEFEF" stroke-width="2"/>
<path d="M1506.76 2633.1C906.972 2611.32 1248.12 2092.99 906.972 2090.58C565.81 2088.17 652.638 2129.28 324.476 2129.27C-39.9232 2094.17 -6.23604 1786.46 -172.716 1786.19" stroke="#EFEFEF" stroke-width="2"/>
<path d="M1503.28 2648.65C1105.08 2619.67 1484.4 2098 958.684 2122C354.908 2180.52 107.267 1925.77 -153.183 2005.47" stroke="#EFEFEF" stroke-width="2"/>
<path d="M1550.26 2399.38C1087.24 2481.85 1265.62 1960.86 802.558 2005.79C111.8 2084.92 96.401 1800.83 -80.3721 1948.39" stroke="#EFEFEF" stroke-width="2"/>
<path d="M1572.68 2464.98C1020.9 2576.53 1119.61 2063.01 628.059 1986.96C144.205 1947.99 196.206 2008.73 -37.8459 1964.32" stroke="#EFEFEF" stroke-width="2"/>
<path d="M1511.5 2577.68C1280.41 2592.24 1245.84 2503.08 1110.54 2195.98C984.836 1910.66 381.558 2197.65 -103.768 1964.32" stroke="#EFEFEF" stroke-width="2"/>
<path d="M-154.624 913.409C445.166 932.022 104.019 1375.01 445.166 1377.07C786.329 1379.13 699.501 1344 1027.66 1344.01C1392.06 1374 1358.37 1636.99 1524.85 1637.22" stroke="#EFEFEF" stroke-width="2"/>
<path d="M-151.143 900.113C247.058 924.886 -132.264 1370.73 393.455 1350.22C997.23 1300.2 1244.87 1517.93 1505.32 1449.82" stroke="#EFEFEF" stroke-width="2"/>
<path d="M-198.118 1113.16C271.541 1042.67 90.6059 1487.94 560.308 1449.54C1260.98 1381.91 1276.6 1624.71 1455.91 1498.6" stroke="#EFEFEF" stroke-width="2"/>
<path d="M-220.537 1057.09C357.697 961.755 254.262 1400.63 769.383 1465.63C1276.44 1498.93 1221.95 1447.03 1467.22 1484.98" stroke="#EFEFEF" stroke-width="2"/>
<path d="M-159.365 960.767C71.7287 948.326 106.302 1024.53 241.599 1286.99C367.303 1530.84 970.58 1285.56 1455.91 1484.98" stroke="#EFEFEF" stroke-width="2"/>
</g>
<defs>
<clipPath id="clip0_56_2">
<rect width="1440" height="2878" fill="white"/>
</clipPath>
</defs>
</svg>
