<svg width="1440" height="560" viewBox="0 0 1440 560" fill="none" xmlns="http://www.w3.org/2000/svg">
<g clip-path="url(#clip0_34_114)">
<mask id="mask0_34_114" style="mask-type:luminance" maskUnits="userSpaceOnUse" x="0" y="0" width="1440" height="560">
<path d="M1440 0H0V560H1440V0Z" fill="white"/>
</mask>
<g mask="url(#mask0_34_114)">
<mask id="mask1_34_114" style="mask-type:luminance" maskUnits="userSpaceOnUse" x="0" y="0" width="1440" height="560">
<path d="M1440 0H0V560H1440V0Z" fill="white"/>
</mask>
<g mask="url(#mask1_34_114)">
<path d="M1440 0H0V560H1440V0Z" fill="#8547AA"/>
<mask id="mask2_34_114" style="mask-type:luminance" maskUnits="userSpaceOnUse" x="940" y="138" width="61" height="61">
<path d="M946.109 151.124C936.635 164.716 939.972 183.416 953.564 192.891C967.156 202.366 985.856 199.028 995.331 185.436C1004.81 171.844 1001.47 153.145 987.876 143.67C974.284 134.195 955.584 137.532 946.109 151.124Z" fill="white"/>
</mask>
<g mask="url(#mask2_34_114)">
<path d="M985.63 251.813L1054.25 153.371L955.811 84.7476L887.188 183.19L985.63 251.813Z" fill="#8F8F8F"/>
</g>
<path d="M376.748 94.7203C377.13 95.3483 377.633 95.8953 378.227 96.3293C378.821 96.7633 379.495 97.0763 380.21 97.2503C380.925 97.4233 381.668 97.4553 382.395 97.3413C383.122 97.2283 383.819 96.9733 384.448 96.5903C385.076 96.2073 385.623 95.7043 386.057 95.1103C386.491 94.5163 386.804 93.8423 386.977 93.1273C387.151 92.4123 387.182 91.6703 387.069 90.9433C386.956 90.2163 386.7 89.5183 386.318 88.8903C385.935 88.2623 385.432 87.7153 384.838 87.2813C384.244 86.8473 383.57 86.5343 382.855 86.3603C382.14 86.1873 381.398 86.1563 380.671 86.2693C379.944 86.3823 379.246 86.6373 378.618 87.0203C377.989 87.4033 377.442 87.9063 377.008 88.5003C376.574 89.0943 376.261 89.7683 376.088 90.4833C375.914 91.1983 375.883 91.9403 375.996 92.6673C376.109 93.3943 376.365 94.0923 376.748 94.7203ZM390.408 86.4003C390.79 87.0283 391.293 87.5753 391.887 88.0093C392.481 88.4433 393.155 88.7563 393.87 88.9303C394.585 89.1033 395.328 89.1353 396.055 89.0213C396.782 88.9083 397.479 88.6533 398.108 88.2703C398.736 87.8873 399.283 87.3843 399.717 86.7903C400.151 86.1963 400.464 85.5223 400.637 84.8073C400.811 84.0923 400.842 83.3503 400.729 82.6233C400.616 81.8963 400.36 81.1983 399.978 80.5703C399.595 79.9423 399.092 79.3953 398.498 78.9613C397.904 78.5273 397.23 78.2143 396.515 78.0403C395.8 77.8673 395.058 77.8363 394.331 77.9493C393.604 78.0623 392.906 78.3173 392.278 78.7003C391.649 79.0833 391.102 79.5863 390.668 80.1803C390.234 80.7743 389.921 81.4483 389.748 82.1633C389.574 82.8783 389.543 83.6203 389.656 84.3473C389.769 85.0743 390.025 85.7723 390.408 86.4003ZM404.078 78.0703C404.46 78.6983 404.962 79.2453 405.555 79.6803C406.149 80.1143 406.822 80.4273 407.537 80.6013C408.251 80.7753 408.993 80.8073 409.72 80.6943C410.447 80.5823 411.144 80.3273 411.773 79.9453C412.401 79.5633 412.948 79.0613 413.382 78.4673C413.817 77.8743 414.13 77.2003 414.304 76.4863C414.478 75.7713 414.51 75.0293 414.397 74.3033C414.284 73.5763 414.03 72.8783 413.648 72.2503C413.265 71.6223 412.763 71.0753 412.17 70.6403C411.576 70.2063 410.903 69.8933 410.188 69.7193C409.474 69.5453 408.732 69.5133 408.005 69.6263C407.278 69.7383 406.581 69.9933 405.953 70.3753C405.324 70.7573 404.777 71.2593 404.343 71.8533C403.909 72.4463 403.596 73.1203 403.421 73.8343C403.247 74.5493 403.216 75.2913 403.328 76.0173C403.441 76.7443 403.695 77.4423 404.078 78.0703ZM417.748 69.7503C418.115 70.4073 418.611 70.9843 419.206 71.4453C419.801 71.9063 420.483 72.2433 421.212 72.4343C421.94 72.6263 422.699 72.6683 423.444 72.5603C424.189 72.4513 424.905 72.1933 425.548 71.8023C426.191 71.4103 426.749 70.8933 427.187 70.2813C427.626 69.6693 427.937 68.9753 428.101 68.2403C428.265 67.5053 428.28 66.7453 428.143 66.0043C428.007 65.2643 427.723 64.5583 427.308 63.9303C426.94 63.2733 426.444 62.6963 425.849 62.2353C425.254 61.7743 424.572 61.4383 423.843 61.2463C423.115 61.0553 422.356 61.0123 421.611 61.1213C420.866 61.2293 420.15 61.4873 419.507 61.8793C418.864 62.2703 418.306 62.7873 417.868 63.3993C417.429 64.0113 417.118 64.7053 416.954 65.4403C416.79 66.1753 416.775 66.9363 416.912 67.6763C417.048 68.4173 417.332 69.1223 417.748 69.7503Z" stroke="white" stroke-dasharray="3 3"/>
<mask id="mask3_34_114" style="mask-type:luminance" maskUnits="userSpaceOnUse" x="1202" y="65" width="77" height="77">
<path d="M1274.63 85.9877C1265.04 67.1488 1241.99 59.6549 1223.15 69.2497C1204.31 78.8444 1196.81 101.894 1206.41 120.733C1216 139.572 1239.05 147.066 1257.89 137.471C1276.73 127.876 1284.23 104.826 1274.63 85.9877Z" fill="white"/>
</mask>
<g mask="url(#mask3_34_114)">
<path d="M1137.55 69.8847L1207.04 206.327L1343.49 136.836L1274 0.393555L1137.55 69.8847Z" fill="#D8D8D8"/>
</g>
<mask id="mask4_34_114" style="mask-type:luminance" maskUnits="userSpaceOnUse" x="620" y="149" width="37" height="37">
<path d="M640.297 185.265C650.196 184.355 657.484 175.593 656.574 165.693C655.665 155.794 646.902 148.506 637.003 149.416C627.103 150.325 619.816 159.088 620.725 168.987C621.635 178.887 630.397 186.174 640.297 185.265Z" fill="white"/>
</mask>
<g mask="url(#mask4_34_114)">
<path d="M671.205 128.197L599.507 134.785L606.095 206.483L677.793 199.895L671.205 128.197Z" fill="#9E9E9E"/>
</g>
<path d="M591.271 560L690.851 535.1L570.066 476.555L591.271 560Z" fill="#CDCDCD"/>
<path d="M878.56 127.767C904.334 127.767 925.227 106.874 925.227 81.1003C925.227 55.327 904.334 34.4336 878.56 34.4336C852.787 34.4336 831.894 55.327 831.894 81.1003C831.894 106.874 852.787 127.767 878.56 127.767Z" stroke="white" stroke-width="1.31" stroke-dasharray="2 2"/>
<path d="M123.376 523.746L120.566 453.656L155.616 455.057L123.376 523.746Z" stroke="white" stroke-width="2.76" stroke-dasharray="4 4"/>
<mask id="mask5_34_114" style="mask-type:luminance" maskUnits="userSpaceOnUse" x="64" y="-16" width="118" height="118">
<path d="M169.38 7.15119C149.537 -18.4857 112.668 -23.1826 87.0316 -3.33951C61.3947 16.5036 56.6978 53.3724 76.5409 79.0093C96.3839 104.646 133.253 109.343 158.889 89.5C184.526 69.6569 189.223 32.7881 169.38 7.15119Z" fill="white"/>
</mask>
<g mask="url(#mask5_34_114)">
<path d="M-41.7363 22.0991L101.979 207.778L287.658 64.0619L143.942 -121.617L-41.7363 22.0991Z" fill="#828282"/>
</g>
<path d="M322.8 396.91C323.513 396.694 324.175 396.338 324.748 395.862C325.321 395.387 325.793 394.802 326.137 394.142C326.482 393.482 326.691 392.76 326.753 392.019C326.815 391.277 326.728 390.53 326.498 389.822C326.268 389.114 325.899 388.459 325.413 387.895C324.927 387.331 324.334 386.87 323.667 386.539C323.001 386.207 322.275 386.012 321.532 385.964C320.789 385.916 320.044 386.017 319.34 386.26C318.628 386.477 317.966 386.833 317.393 387.308C316.82 387.784 316.348 388.368 316.004 389.028C315.659 389.688 315.45 390.41 315.388 391.152C315.326 391.894 315.413 392.641 315.643 393.349C315.873 394.057 316.241 394.712 316.728 395.276C317.214 395.839 317.807 396.3 318.474 396.632C319.14 396.964 319.866 397.159 320.609 397.207C321.352 397.255 322.097 397.154 322.8 396.91ZM317.86 381.69C318.58 381.481 319.251 381.129 319.832 380.656C320.414 380.183 320.894 379.597 321.245 378.935C321.596 378.273 321.81 377.546 321.876 376.8C321.941 376.053 321.855 375.3 321.624 374.587C321.393 373.874 321.021 373.215 320.531 372.648C320.04 372.081 319.44 371.618 318.768 371.288C318.095 370.957 317.363 370.765 316.614 370.722C315.866 370.68 315.116 370.788 314.41 371.04C313.691 371.25 313.02 371.601 312.439 372.075C311.857 372.548 311.377 373.133 311.026 373.796C310.675 374.458 310.46 375.184 310.395 375.931C310.33 376.678 310.416 377.43 310.647 378.143C310.878 378.857 311.25 379.516 311.74 380.083C312.231 380.65 312.83 381.112 313.503 381.443C314.176 381.774 314.908 381.966 315.657 382.009C316.405 382.051 317.155 381.943 317.86 381.69ZM312.92 366.47C313.64 366.261 314.311 365.909 314.892 365.436C315.474 364.963 315.954 364.377 316.305 363.715C316.656 363.053 316.87 362.326 316.936 361.58C317.001 360.833 316.915 360.08 316.684 359.367C316.453 358.654 316.081 357.995 315.591 357.428C315.1 356.861 314.5 356.399 313.828 356.068C313.155 355.737 312.423 355.545 311.674 355.502C310.926 355.46 310.176 355.568 309.47 355.82C308.751 356.03 308.08 356.381 307.499 356.855C306.917 357.328 306.437 357.913 306.086 358.576C305.735 359.238 305.52 359.964 305.455 360.711C305.39 361.458 305.476 362.21 305.707 362.923C305.938 363.637 306.31 364.296 306.8 364.863C307.291 365.43 307.89 365.892 308.563 366.223C309.236 366.554 309.968 366.746 310.717 366.789C311.465 366.831 312.215 366.723 312.92 366.47ZM307.99 351.25C308.703 351.034 309.365 350.678 309.938 350.202C310.511 349.727 310.983 349.142 311.327 348.482C311.672 347.822 311.881 347.1 311.943 346.358C312.005 345.617 311.918 344.87 311.688 344.162C311.458 343.454 311.089 342.799 310.603 342.235C310.117 341.671 309.524 341.21 308.857 340.879C308.191 340.547 307.465 340.352 306.722 340.304C305.979 340.256 305.234 340.357 304.53 340.6C303.818 340.817 303.156 341.173 302.583 341.648C302.01 342.124 301.538 342.708 301.194 343.368C300.849 344.028 300.64 344.75 300.578 345.492C300.516 346.234 300.603 346.981 300.833 347.689C301.063 348.397 301.431 349.052 301.918 349.616C302.404 350.179 302.997 350.64 303.664 350.972C304.33 351.304 305.056 351.499 305.799 351.547C306.542 351.595 307.287 351.494 307.99 351.25ZM347.9 422.41C349.314 421.952 350.488 420.95 351.163 419.626C351.838 418.302 351.959 416.764 351.5 415.35C351.042 413.937 350.04 412.763 348.716 412.088C347.392 411.413 345.854 411.292 344.44 411.75C343.741 411.978 343.092 412.34 342.532 412.818C341.973 413.296 341.513 413.879 341.178 414.535C340.844 415.19 340.642 415.905 340.584 416.639C340.526 417.373 340.613 418.11 340.84 418.81C341.068 419.51 341.43 420.159 341.908 420.718C342.386 421.278 342.969 421.738 343.625 422.073C344.28 422.407 344.995 422.609 345.729 422.667C346.463 422.725 347.201 422.638 347.9 422.41ZM342.96 407.19C343.673 406.974 344.335 406.618 344.908 406.142C345.481 405.667 345.953 405.082 346.297 404.422C346.642 403.762 346.851 403.04 346.913 402.299C346.975 401.557 346.888 400.81 346.658 400.102C346.428 399.394 346.059 398.739 345.573 398.175C345.087 397.611 344.493 397.15 343.827 396.819C343.161 396.487 342.435 396.292 341.692 396.244C340.949 396.196 340.204 396.297 339.5 396.54C338.788 396.757 338.126 397.113 337.553 397.588C336.98 398.064 336.508 398.648 336.164 399.308C335.819 399.968 335.61 400.69 335.548 401.432C335.486 402.174 335.573 402.921 335.803 403.629C336.033 404.337 336.401 404.992 336.888 405.556C337.374 406.119 337.967 406.58 338.634 406.912C339.3 407.244 340.026 407.439 340.769 407.487C341.512 407.535 342.257 407.434 342.96 407.19ZM338.02 391.97C338.733 391.754 339.395 391.398 339.968 390.922C340.541 390.447 341.013 389.862 341.357 389.202C341.702 388.542 341.911 387.82 341.973 387.078C342.035 386.337 341.948 385.59 341.718 384.882C341.488 384.174 341.119 383.519 340.633 382.955C340.147 382.391 339.553 381.93 338.887 381.599C338.221 381.267 337.495 381.072 336.752 381.024C336.009 380.976 335.264 381.077 334.56 381.32C333.848 381.537 333.186 381.893 332.613 382.368C332.04 382.844 331.568 383.428 331.224 384.088C330.879 384.748 330.67 385.47 330.608 386.212C330.546 386.954 330.633 387.701 330.863 388.409C331.093 389.117 331.461 389.772 331.948 390.336C332.434 390.899 333.027 391.36 333.694 391.692C334.36 392.024 335.086 392.219 335.829 392.267C336.572 392.315 337.317 392.214 338.02 391.97ZM333.08 376.75C333.793 376.534 334.455 376.178 335.028 375.702C335.601 375.227 336.073 374.642 336.417 373.982C336.762 373.322 336.971 372.6 337.033 371.858C337.095 371.117 337.008 370.37 336.778 369.662C336.548 368.954 336.179 368.299 335.693 367.735C335.207 367.171 334.613 366.71 333.947 366.379C333.281 366.047 332.555 365.852 331.812 365.804C331.069 365.756 330.324 365.857 329.62 366.1C328.908 366.317 328.246 366.673 327.673 367.148C327.1 367.624 326.628 368.208 326.284 368.868C325.939 369.528 325.73 370.25 325.668 370.992C325.606 371.734 325.693 372.481 325.923 373.189C326.153 373.897 326.521 374.552 327.008 375.116C327.494 375.679 328.087 376.14 328.754 376.472C329.42 376.804 330.146 376.999 330.889 377.047C331.632 377.095 332.377 376.994 333.08 376.75Z" fill="#8547AA"/>
<mask id="mask6_34_114" style="mask-type:luminance" maskUnits="userSpaceOnUse" x="936" y="360" width="136" height="137">
<path d="M1064 459.331C1081.01 426.045 1067.81 385.275 1034.52 368.271C1001.23 351.267 960.466 364.466 943.462 397.753C926.457 431.04 939.657 471.809 972.944 488.813C1006.23 505.818 1047 492.618 1064 459.331Z" fill="white"/>
</mask>
<g mask="url(#mask6_34_114)">
<path d="M944.769 246.421L821.612 487.506L1062.69 610.663L1185.85 369.578L944.769 246.421Z" fill="#BFBFBF"/>
</g>
</g>
</g>
</g>
<defs>
<clipPath id="clip0_34_114">
<rect width="1440" height="560" fill="white"/>
</clipPath>
</defs>
</svg>
