<svg xmlns="http://www.w3.org/2000/svg" version="1.1" xmlns:xlink="http://www.w3.org/1999/xlink" xmlns:svgjs="http://svgjs.dev/svgjs" width="1440" height="680" preserveAspectRatio="none" viewBox="0 0 1440 680"><g mask="url(&quot;#SvgjsMask1033&quot;)" fill="none"><rect width="1440" height="680" x="0" y="0" fill="rgba(202, 133, 207, 1)"></rect><path d="M50 680L730 0L932.5 0L252.5 680z" fill="url(&quot;#SvgjsLinearGradient1034&quot;)"></path><path d="M528.2 680L1208.2 0L1689.7 0L1009.7 680z" fill="url(&quot;#SvgjsLinearGradient1034&quot;)"></path><path d="M1382 680L702 0L3 0L683 680z" fill="url(&quot;#SvgjsLinearGradient1035&quot;)"></path><path d="M887.8 680L207.79999999999995 0L57.799999999999955 0L737.8 680z" fill="url(&quot;#SvgjsLinearGradient1035&quot;)"></path><path d="M809.2030007201745 680L1440 49.20300072017449L1440 680z" fill="url(&quot;#SvgjsLinearGradient1034&quot;)"></path><path d="M0 680L630.7969992798255 680L 0 49.20300072017449z" fill="url(&quot;#SvgjsLinearGradient1035&quot;)"></path></g><defs><mask id="SvgjsMask1033"><rect width="1440" height="680" fill="#ffffff"></rect></mask><linearGradient x1="0%" y1="100%" x2="100%" y2="0%" id="SvgjsLinearGradient1034"><stop stop-color="rgba(67, 8, 118, 0.2)" offset="0"></stop><stop stop-opacity="0" stop-color="rgba(67, 8, 118, 0.2)" offset="0.66"></stop></linearGradient><linearGradient x1="100%" y1="100%" x2="0%" y2="0%" id="SvgjsLinearGradient1035"><stop stop-color="rgba(67, 8, 118, 0.2)" offset="0"></stop><stop stop-opacity="0" stop-color="rgba(67, 8, 118, 0.2)" offset="0.66"></stop></linearGradient></defs></svg>