<svg width="114" height="130" viewBox="0 0 114 130" fill="none" xmlns="http://www.w3.org/2000/svg">
<g clip-path="url(#clip0_12_56)">
<circle cx="57" cy="64.3237" r="28.5" fill="#222222" stroke="#EEEEEE" stroke-width="2"/>
<line x1="82.7623" y1="-1.74309" x2="36.2545" y2="44.7647" stroke="#EEEEEE" stroke-width="2"/>
<line x1="78.4205" y1="83.1593" x2="30.8726" y2="130.707" stroke="#EEEEEE" stroke-width="2"/>
<path d="M60.3369 53.876C60.3582 53.8654 60.4329 53.86 60.5609 53.86C60.6782 53.86 60.7529 53.8707 60.7849 53.892C60.9129 53.9774 60.9662 54.1587 60.9449 54.436C60.9022 54.884 60.7422 55.252 60.4649 55.54C60.4116 55.604 60.3529 55.6467 60.2889 55.668C60.2249 55.7 60.1289 55.716 60.0009 55.716C59.5742 55.748 59.1796 55.8387 58.8169 55.988C58.4862 56.1374 58.2676 56.2867 58.1609 56.436C58.0862 56.5747 57.8996 57.108 57.6009 58.036C56.8756 60.372 56.1876 62.8574 55.5369 65.492L55.3289 66.34L55.2969 66.436C55.2436 66.6707 55.0409 66.884 54.6889 67.076C54.6676 67.0867 54.6462 67.0974 54.6249 67.108C54.4436 67.1827 54.2676 67.22 54.0969 67.22C53.9582 67.22 53.8462 67.1614 53.7609 67.044C53.7289 67.0014 53.6809 66.932 53.6169 66.836C53.0089 65.9187 52.4809 64.9107 52.0329 63.812C51.4569 62.3934 50.8596 60.724 50.2409 58.804L50.1449 58.5L50.0329 59.028C49.7022 60.6174 49.2862 62.1694 48.7849 63.684C48.4542 64.644 48.1662 65.3694 47.9209 65.86C47.8356 66.0414 47.7449 66.2067 47.6489 66.356C47.2756 66.9747 46.8809 67.332 46.4649 67.428C46.3049 67.46 46.0969 67.4494 45.8409 67.396C45.4249 67.2787 45.1209 67.0814 44.9289 66.804C44.9182 66.7827 44.9076 66.7614 44.8969 66.74C44.7582 66.4627 44.8062 66.0894 45.0409 65.62C45.1262 65.4387 45.2222 65.2947 45.3289 65.188C45.4249 65.092 45.5262 65.044 45.6329 65.044C45.6969 65.044 45.7449 65.0654 45.7769 65.108C45.9262 65.2574 46.0542 65.3587 46.1609 65.412C46.3742 65.5187 46.5769 65.572 46.7689 65.572C46.8542 65.572 46.9182 65.5614 46.9609 65.54C47.0462 65.4867 47.1529 65.3374 47.2809 65.092C47.4942 64.676 47.7236 64.0787 47.9689 63.3C48.6942 61.0814 49.1849 58.8574 49.4409 56.628C49.4836 56.3187 49.5049 56.1587 49.5049 56.148C49.5582 55.924 49.7556 55.716 50.0969 55.524C50.1929 55.4707 50.2889 55.4334 50.3849 55.412L50.6729 55.364C50.7796 55.364 50.8542 55.38 50.8969 55.412C50.9609 55.4547 50.9929 55.4814 50.9929 55.492C51.0462 55.588 51.0996 55.7534 51.1529 55.988C51.7609 58.1107 52.4596 60.1907 53.2489 62.228C53.5902 63.1027 53.8889 63.796 54.1449 64.308C54.4542 64.9267 54.6249 65.236 54.6569 65.236L54.7209 65.012C54.8809 64.3294 55.2862 62.82 55.9369 60.484C56.7476 57.7 57.3182 56.0147 57.6489 55.428C57.7556 55.236 57.8729 55.0707 58.0009 54.932C58.6409 54.292 59.4196 53.94 60.3369 53.876Z" fill="#EEEEEE"/>
<path d="M58.3865 63.8307H59.2025C59.4371 63.8947 59.6345 64.012 59.7945 64.1827C59.9651 64.3747 60.0505 64.5987 60.0505 64.8547C60.0505 65.2493 59.9811 65.8413 59.8425 66.6307C59.7465 67.228 59.5971 67.916 59.3945 68.6947C59.3091 69.004 59.2665 69.164 59.2665 69.1747V69.2067H61.0265H62.7865L62.8825 68.8387C63.3838 67.1427 63.8531 65.7933 64.2905 64.7907C64.3438 64.652 64.3865 64.5613 64.4185 64.5187C64.5465 64.3053 64.7705 64.124 65.0905 63.9747C65.2931 63.8787 65.4851 63.8253 65.6665 63.8147C65.7731 63.8147 65.8478 63.8253 65.8905 63.8467C65.9438 63.868 65.9758 63.8947 65.9865 63.9267C66.0398 63.9907 66.0238 64.1507 65.9385 64.4067C65.9171 64.4493 65.8958 64.5027 65.8745 64.5667C64.8185 67.3507 64.1091 69.74 63.7465 71.7347C63.5758 72.588 63.4905 73.2493 63.4905 73.7187C63.4905 73.8467 63.5065 73.9427 63.5385 74.0067C63.6345 74.188 63.7998 74.2733 64.0345 74.2627C64.3225 74.2627 64.5091 74.2413 64.5945 74.1987C64.6265 74.188 64.6478 74.156 64.6585 74.1027C64.7545 73.8147 65.0211 73.5693 65.4585 73.3667C65.6398 73.2813 65.8158 73.228 65.9865 73.2067L66.1465 73.1907L66.2425 73.2227C66.3811 73.308 66.4131 73.4627 66.3385 73.6867C66.1145 74.2627 65.6505 74.7267 64.9465 75.0787C64.3598 75.3453 63.6985 75.4947 62.9625 75.5267C62.6745 75.5267 62.4665 75.4947 62.3385 75.4307C62.1038 75.324 61.9385 75.1747 61.8425 74.9827C61.7465 74.7907 61.7198 74.508 61.7625 74.1347C61.8585 73.0467 62.0505 71.9533 62.3385 70.8547C62.4131 70.556 62.4505 70.3907 62.4505 70.3587L62.3705 70.3907C62.1891 70.4333 61.5598 70.4547 60.4825 70.4547H58.8985C58.8985 70.5293 58.6905 71.1747 58.2745 72.3907C57.8265 73.7027 57.5438 74.4547 57.4265 74.6467C57.2771 74.9133 57.0105 75.1267 56.6265 75.2867C56.4345 75.3507 56.2691 75.388 56.1305 75.3987C56.0238 75.3987 55.9438 75.3827 55.8905 75.3507C55.8051 75.2973 55.7625 75.228 55.7625 75.1427C55.7625 75.0787 55.8265 74.9027 55.9545 74.6147C56.4878 73.1853 56.9251 71.8787 57.2665 70.6947L57.3465 70.4547H56.6105H55.8745L55.7945 70.4067C55.7091 70.3533 55.6665 70.2733 55.6665 70.1667C55.6985 69.9107 55.9225 69.6653 56.3385 69.4307C56.3811 69.4093 56.4238 69.388 56.4665 69.3667C56.6585 69.2707 56.9038 69.2173 57.2025 69.2067H57.2825H57.6825L57.6985 69.1427C57.9651 68.1507 58.1411 67.2173 58.2265 66.3427C58.3011 65.8093 58.3065 65.4787 58.2425 65.3507C58.1251 65.116 57.8318 65.0307 57.3625 65.0947C57.3198 65.0947 57.2718 65.1 57.2185 65.1107C56.7171 65.1747 56.3331 65.3453 56.0665 65.6227C55.8851 65.804 55.7091 66.0493 55.5385 66.3587C55.4531 66.5293 55.3785 66.6467 55.3145 66.7107C54.9411 67.052 54.5358 67.244 54.0985 67.2867C54.0451 67.2867 53.9865 67.2707 53.9225 67.2387C53.7838 67.1533 53.7678 67.004 53.8745 66.7907C53.8851 66.7587 53.9011 66.7213 53.9225 66.6787C54.1785 66.1773 54.5091 65.7347 54.9145 65.3507C55.8745 64.4547 57.0318 63.948 58.3865 63.8307Z" fill="#EEEEEE"/>
</g>
<defs>
<clipPath id="clip0_12_56">
<rect y="-1" width="114" height="131" rx="16" fill="white"/>
</clipPath>
</defs>
</svg>
