<svg width="1440" height="560" viewBox="0 0 1440 560" fill="none" xmlns="http://www.w3.org/2000/svg">
<g clip-path="url(#clip0_34_409)">
<mask id="mask0_34_409" style="mask-type:luminance" maskUnits="userSpaceOnUse" x="0" y="0" width="1440" height="560">
<path d="M1440 0H0V560H1440V0Z" fill="white"/>
</mask>
<g mask="url(#mask0_34_409)">
<path d="M1440 0H0V560H1440V0Z" fill="#40478B"/>
<path d="M36 24L24 36L36 24Z" stroke="#2D00A3"/>
<path d="M36 84L24 96L36 84Z" stroke="#3B96D7"/>
<path d="M25 150C25 151.326 25.5268 152.598 26.4645 153.536C27.4021 154.473 28.6739 155 30 155C31.3261 155 32.5979 154.473 33.5355 153.536C34.4732 152.598 35 151.326 35 150C35 148.674 34.4732 147.402 33.5355 146.464C32.5979 145.527 31.3261 145 30 145C28.6739 145 27.4021 145.527 26.4645 146.464C25.5268 147.402 25 148.674 25 150V150Z" stroke="#1200FF"/>
<path d="M60 180L0 240L60 180Z" stroke="#3B96D7" stroke-width="3"/>
<path d="M25 270C25 271.326 25.5268 272.598 26.4645 273.536C27.4021 274.473 28.6739 275 30 275C31.3261 275 32.5979 274.473 33.5355 273.536C34.4732 272.598 35 271.326 35 270C35 268.674 34.4732 267.402 33.5355 266.464C32.5979 265.527 31.3261 265 30 265C28.6739 265 27.4021 265.527 26.4645 266.464C25.5268 267.402 25 268.674 25 270V270Z" stroke="#1200FF"/>
<path d="M36 324L24 336L36 324Z" stroke="#3B96D7"/>
<path d="M36 384L24 396L36 384Z" stroke="#3B96D7"/>
<path d="M25 450C25 451.326 25.5268 452.598 26.4645 453.536C27.4021 454.473 28.6739 455 30 455C31.3261 455 32.5979 454.473 33.5355 453.536C34.4732 452.598 35 451.326 35 450C35 448.674 34.4732 447.402 33.5355 446.464C32.5979 445.527 31.3261 445 30 445C28.6739 445 27.4021 445.527 26.4645 446.464C25.5268 447.402 25 448.674 25 450V450Z" stroke="#3B96D7"/>
<path d="M29 510C29 510.265 29.1054 510.52 29.2929 510.707C29.4804 510.895 29.7348 511 30 511C30.2652 511 30.5196 510.895 30.7071 510.707C30.8946 510.52 31 510.265 31 510C31 509.735 30.8946 509.48 30.7071 509.293C30.5196 509.105 30.2652 509 30 509C29.7348 509 29.4804 509.105 29.2929 509.293C29.1054 509.48 29 509.735 29 510V510Z" stroke="#2D00A3"/>
<path d="M85 30C85 31.3261 85.5268 32.5979 86.4645 33.5355C87.4021 34.4732 88.6739 35 90 35C91.3261 35 92.5979 34.4732 93.5355 33.5355C94.4732 32.5979 95 31.3261 95 30C95 28.6739 94.4732 27.4021 93.5355 26.4645C92.5979 25.5268 91.3261 25 90 25C88.6739 25 87.4021 25.5268 86.4645 26.4645C85.5268 27.4021 85 28.6739 85 30V30Z" stroke="#1200FF"/>
<path d="M120 60L60 120L120 60Z" stroke="#2D00A3" stroke-width="3"/>
<path d="M92 148L88 152L92 148Z" stroke="#3B96D7"/>
<path d="M85 210C85 211.326 85.5268 212.598 86.4645 213.536C87.4021 214.473 88.6739 215 90 215C91.3261 215 92.5979 214.473 93.5355 213.536C94.4732 212.598 95 211.326 95 210C95 208.674 94.4732 207.402 93.5355 206.464C92.5979 205.527 91.3261 205 90 205C88.6739 205 87.4021 205.527 86.4645 206.464C85.5268 207.402 85 208.674 85 210V210Z" stroke="#1200FF"/>
<path d="M96 264L84 276L96 264Z" stroke="#3B96D7"/>
<path d="M120 300L60 360L120 300Z" stroke="#2D00A3" stroke-width="3"/>
<path d="M85 390C85 391.326 85.5268 392.598 86.4645 393.536C87.4021 394.473 88.6739 395 90 395C91.3261 395 92.5979 394.473 93.5355 393.536C94.4732 392.598 95 391.326 95 390C95 388.674 94.4732 387.402 93.5355 386.464C92.5979 385.527 91.3261 385 90 385C88.6739 385 87.4021 385.527 86.4645 386.464C85.5268 387.402 85 388.674 85 390V390Z" stroke="#3B96D7"/>
<path d="M89 450C89 450.265 89.1054 450.52 89.2929 450.707C89.4804 450.895 89.7348 451 90 451C90.2652 451 90.5196 450.895 90.7071 450.707C90.8946 450.52 91 450.265 91 450C91 449.735 90.8946 449.48 90.7071 449.293C90.5196 449.105 90.2652 449 90 449C89.7348 449 89.4804 449.105 89.2929 449.293C89.1054 449.48 89 449.735 89 450V450Z" stroke="#2D00A3"/>
<path d="M120 480L60 540L120 480Z" stroke="#3B96D7" stroke-width="3"/>
<path d="M156 24L144 36L156 24Z" stroke="#1200FF"/>
<path d="M156 84L144 96L156 84Z" stroke="#1200FF"/>
<path d="M149 150C149 150.265 149.105 150.52 149.293 150.707C149.48 150.895 149.735 151 150 151C150.265 151 150.52 150.895 150.707 150.707C150.895 150.52 151 150.265 151 150C151 149.735 150.895 149.48 150.707 149.293C150.52 149.105 150.265 149 150 149C149.735 149 149.48 149.105 149.293 149.293C149.105 149.48 149 149.735 149 150V150Z" stroke="#3B96D7"/>
<path d="M147 210C147 210.796 147.316 211.559 147.879 212.121C148.441 212.684 149.204 213 150 213C150.796 213 151.559 212.684 152.121 212.121C152.684 211.559 153 210.796 153 210C153 209.204 152.684 208.441 152.121 207.879C151.559 207.316 150.796 207 150 207C149.204 207 148.441 207.316 147.879 207.879C147.316 208.441 147 209.204 147 210V210Z" stroke="#3B96D7"/>
<path d="M145 270C145 271.326 145.527 272.598 146.464 273.536C147.402 274.473 148.674 275 150 275C151.326 275 152.598 274.473 153.536 273.536C154.473 272.598 155 271.326 155 270C155 268.674 154.473 267.402 153.536 266.464C152.598 265.527 151.326 265 150 265C148.674 265 147.402 265.527 146.464 266.464C145.527 267.402 145 268.674 145 270V270Z" stroke="#2D00A3"/>
<path d="M156 324L144 336L156 324Z" stroke="#2D00A3"/>
<path d="M152 388L148 392L152 388Z" stroke="#2D00A3"/>
<path d="M145 450C145 451.326 145.527 452.598 146.464 453.536C147.402 454.473 148.674 455 150 455C151.326 455 152.598 454.473 153.536 453.536C154.473 452.598 155 451.326 155 450C155 448.674 154.473 447.402 153.536 446.464C152.598 445.527 151.326 445 150 445C148.674 445 147.402 445.527 146.464 446.464C145.527 447.402 145 448.674 145 450V450Z" stroke="#3B96D7"/>
<path d="M152 508L148 512L152 508Z" stroke="#1200FF"/>
<path d="M180 540L120 600L180 540Z" stroke="#3B96D7" stroke-width="3"/>
<path d="M212 28L208 32L212 28Z" stroke="#1200FF"/>
<path d="M216 84L204 96L216 84Z" stroke="#1200FF"/>
<path d="M209 150C209 150.265 209.105 150.52 209.293 150.707C209.48 150.895 209.735 151 210 151C210.265 151 210.52 150.895 210.707 150.707C210.895 150.52 211 150.265 211 150C211 149.735 210.895 149.48 210.707 149.293C210.52 149.105 210.265 149 210 149C209.735 149 209.48 149.105 209.293 149.293C209.105 149.48 209 149.735 209 150V150Z" stroke="#1200FF"/>
<path d="M205 210C205 211.326 205.527 212.598 206.464 213.536C207.402 214.473 208.674 215 210 215C211.326 215 212.598 214.473 213.536 213.536C214.473 212.598 215 211.326 215 210C215 208.674 214.473 207.402 213.536 206.464C212.598 205.527 211.326 205 210 205C208.674 205 207.402 205.527 206.464 206.464C205.527 207.402 205 208.674 205 210V210Z" stroke="#1200FF"/>
<path d="M212 268L208 272L212 268Z" stroke="#3B96D7"/>
<path d="M207 330C207 330.796 207.316 331.559 207.879 332.121C208.441 332.684 209.204 333 210 333C210.796 333 211.559 332.684 212.121 332.121C212.684 331.559 213 330.796 213 330C213 329.204 212.684 328.441 212.121 327.879C211.559 327.316 210.796 327 210 327C209.204 327 208.441 327.316 207.879 327.879C207.316 328.441 207 329.204 207 330V330Z" stroke="#1200FF"/>
<path d="M205 390C205 391.326 205.527 392.598 206.464 393.536C207.402 394.473 208.674 395 210 395C211.326 395 212.598 394.473 213.536 393.536C214.473 392.598 215 391.326 215 390C215 388.674 214.473 387.402 213.536 386.464C212.598 385.527 211.326 385 210 385C208.674 385 207.402 385.527 206.464 386.464C205.527 387.402 205 388.674 205 390V390Z" stroke="#2D00A3"/>
<path d="M216 444L204 456L216 444Z" stroke="#1200FF"/>
<path d="M216 504L204 516L216 504Z" stroke="#2D00A3"/>
<path d="M272 28L268 32L272 28Z" stroke="#2D00A3"/>
<path d="M276 84L264 96L276 84Z" stroke="#2D00A3"/>
<path d="M300 120L240 180L300 120Z" stroke="#2D00A3" stroke-width="3"/>
<path d="M265 210C265 211.326 265.527 212.598 266.464 213.536C267.402 214.473 268.674 215 270 215C271.326 215 272.598 214.473 273.536 213.536C274.473 212.598 275 211.326 275 210C275 208.674 274.473 207.402 273.536 206.464C272.598 205.527 271.326 205 270 205C268.674 205 267.402 205.527 266.464 206.464C265.527 207.402 265 208.674 265 210V210Z" stroke="#2D00A3"/>
<path d="M265 270C265 271.326 265.527 272.598 266.464 273.536C267.402 274.473 268.674 275 270 275C271.326 275 272.598 274.473 273.536 273.536C274.473 272.598 275 271.326 275 270C275 268.674 274.473 267.402 273.536 266.464C272.598 265.527 271.326 265 270 265C268.674 265 267.402 265.527 266.464 266.464C265.527 267.402 265 268.674 265 270V270Z" stroke="#2D00A3"/>
<path d="M276 324L264 336L276 324Z" stroke="#1200FF"/>
<path d="M265 390C265 391.326 265.527 392.598 266.464 393.536C267.402 394.473 268.674 395 270 395C271.326 395 272.598 394.473 273.536 393.536C274.473 392.598 275 391.326 275 390C275 388.674 274.473 387.402 273.536 386.464C272.598 385.527 271.326 385 270 385C268.674 385 267.402 385.527 266.464 386.464C265.527 387.402 265 388.674 265 390V390Z" stroke="#3B96D7"/>
<path d="M272 448L268 452L272 448Z" stroke="#3B96D7"/>
<path d="M272 508L268 512L272 508Z" stroke="#3B96D7"/>
<path d="M332 28L328 32L332 28Z" stroke="#2D00A3"/>
<path d="M336 84L324 96L336 84Z" stroke="#2D00A3"/>
<path d="M332 148L328 152L332 148Z" stroke="#1200FF"/>
<path d="M329 210C329 210.265 329.105 210.52 329.293 210.707C329.48 210.895 329.735 211 330 211C330.265 211 330.52 210.895 330.707 210.707C330.895 210.52 331 210.265 331 210C331 209.735 330.895 209.48 330.707 209.293C330.52 209.105 330.265 209 330 209C329.735 209 329.48 209.105 329.293 209.293C329.105 209.48 329 209.735 329 210V210Z" stroke="#3B96D7"/>
<path d="M336 264L324 276L336 264Z" stroke="#3B96D7"/>
<path d="M325 330C325 331.326 325.527 332.598 326.464 333.536C327.402 334.473 328.674 335 330 335C331.326 335 332.598 334.473 333.536 333.536C334.473 332.598 335 331.326 335 330C335 328.674 334.473 327.402 333.536 326.464C332.598 325.527 331.326 325 330 325C328.674 325 327.402 325.527 326.464 326.464C325.527 327.402 325 328.674 325 330V330Z" stroke="#3B96D7"/>
<path d="M327 390C327 390.796 327.316 391.559 327.879 392.121C328.441 392.684 329.204 393 330 393C330.796 393 331.559 392.684 332.121 392.121C332.684 391.559 333 390.796 333 390C333 389.204 332.684 388.441 332.121 387.879C331.559 387.316 330.796 387 330 387C329.204 387 328.441 387.316 327.879 387.879C327.316 388.441 327 389.204 327 390V390Z" stroke="#2D00A3"/>
<path d="M325 450C325 451.326 325.527 452.598 326.464 453.536C327.402 454.473 328.674 455 330 455C331.326 455 332.598 454.473 333.536 453.536C334.473 452.598 335 451.326 335 450C335 448.674 334.473 447.402 333.536 446.464C332.598 445.527 331.326 445 330 445C328.674 445 327.402 445.527 326.464 446.464C325.527 447.402 325 448.674 325 450V450Z" stroke="#1200FF"/>
<path d="M325 510C325 511.326 325.527 512.598 326.464 513.536C327.402 514.473 328.674 515 330 515C331.326 515 332.598 514.473 333.536 513.536C334.473 512.598 335 511.326 335 510C335 508.674 334.473 507.402 333.536 506.464C332.598 505.527 331.326 505 330 505C328.674 505 327.402 505.527 326.464 506.464C325.527 507.402 325 508.674 325 510V510Z" stroke="#1200FF"/>
<path d="M389 30C389 30.2652 389.105 30.5196 389.293 30.7071C389.48 30.8946 389.735 31 390 31C390.265 31 390.52 30.8946 390.707 30.7071C390.895 30.5196 391 30.2652 391 30C391 29.7348 390.895 29.4804 390.707 29.2929C390.52 29.1054 390.265 29 390 29C389.735 29 389.48 29.1054 389.293 29.2929C389.105 29.4804 389 29.7348 389 30V30Z" stroke="#1200FF"/>
<path d="M385 90C385 91.3261 385.527 92.5979 386.464 93.5355C387.402 94.4732 388.674 95 390 95C391.326 95 392.598 94.4732 393.536 93.5355C394.473 92.5979 395 91.3261 395 90C395 88.6739 394.473 87.4021 393.536 86.4645C392.598 85.5268 391.326 85 390 85C388.674 85 387.402 85.5268 386.464 86.4645C385.527 87.4021 385 88.6739 385 90V90Z" stroke="#2D00A3"/>
<path d="M389 150C389 150.265 389.105 150.52 389.293 150.707C389.48 150.895 389.735 151 390 151C390.265 151 390.52 150.895 390.707 150.707C390.895 150.52 391 150.265 391 150C391 149.735 390.895 149.48 390.707 149.293C390.52 149.105 390.265 149 390 149C389.735 149 389.48 149.105 389.293 149.293C389.105 149.48 389 149.735 389 150V150Z" stroke="#2D00A3"/>
<path d="M392 208L388 212L392 208Z" stroke="#3B96D7"/>
<path d="M392 268L388 272L392 268Z" stroke="#2D00A3"/>
<path d="M392 328L388 332L392 328Z" stroke="#3B96D7"/>
<path d="M385 390C385 391.326 385.527 392.598 386.464 393.536C387.402 394.473 388.674 395 390 395C391.326 395 392.598 394.473 393.536 393.536C394.473 392.598 395 391.326 395 390C395 388.674 394.473 387.402 393.536 386.464C392.598 385.527 391.326 385 390 385C388.674 385 387.402 385.527 386.464 386.464C385.527 387.402 385 388.674 385 390V390Z" stroke="#2D00A3"/>
<path d="M396 444L384 456L396 444Z" stroke="#3B96D7"/>
<path d="M389 510C389 510.265 389.105 510.52 389.293 510.707C389.48 510.895 389.735 511 390 511C390.265 511 390.52 510.895 390.707 510.707C390.895 510.52 391 510.265 391 510C391 509.735 390.895 509.48 390.707 509.293C390.52 509.105 390.265 509 390 509C389.735 509 389.48 509.105 389.293 509.293C389.105 509.48 389 509.735 389 510V510Z" stroke="#3B96D7"/>
<path d="M449 30C449 30.2652 449.105 30.5196 449.293 30.7071C449.48 30.8946 449.735 31 450 31C450.265 31 450.52 30.8946 450.707 30.7071C450.895 30.5196 451 30.2652 451 30C451 29.7348 450.895 29.4804 450.707 29.2929C450.52 29.1054 450.265 29 450 29C449.735 29 449.48 29.1054 449.293 29.2929C449.105 29.4804 449 29.7348 449 30V30Z" stroke="#2D00A3"/>
<path d="M452 88L448 92L452 88Z" stroke="#2D00A3"/>
<path d="M456 144L444 156L456 144Z" stroke="#2D00A3"/>
<path d="M449 210C449 210.265 449.105 210.52 449.293 210.707C449.48 210.895 449.735 211 450 211C450.265 211 450.52 210.895 450.707 210.707C450.895 210.52 451 210.265 451 210C451 209.735 450.895 209.48 450.707 209.293C450.52 209.105 450.265 209 450 209C449.735 209 449.48 209.105 449.293 209.293C449.105 209.48 449 209.735 449 210V210Z" stroke="#2D00A3"/>
<path d="M456 264L444 276L456 264Z" stroke="#3B96D7"/>
<path d="M456 324L444 336L456 324Z" stroke="#2D00A3"/>
<path d="M449 390C449 390.265 449.105 390.52 449.293 390.707C449.48 390.895 449.735 391 450 391C450.265 391 450.52 390.895 450.707 390.707C450.895 390.52 451 390.265 451 390C451 389.735 450.895 389.48 450.707 389.293C450.52 389.105 450.265 389 450 389C449.735 389 449.48 389.105 449.293 389.293C449.105 389.48 449 389.735 449 390V390Z" stroke="#1200FF"/>
<path d="M445 450C445 451.326 445.527 452.598 446.464 453.536C447.402 454.473 448.674 455 450 455C451.326 455 452.598 454.473 453.536 453.536C454.473 452.598 455 451.326 455 450C455 448.674 454.473 447.402 453.536 446.464C452.598 445.527 451.326 445 450 445C448.674 445 447.402 445.527 446.464 446.464C445.527 447.402 445 448.674 445 450V450Z" stroke="#2D00A3"/>
<path d="M447 510C447 510.796 447.316 511.559 447.879 512.121C448.441 512.684 449.204 513 450 513C450.796 513 451.559 512.684 452.121 512.121C452.684 511.559 453 510.796 453 510C453 509.204 452.684 508.441 452.121 507.879C451.559 507.316 450.796 507 450 507C449.204 507 448.441 507.316 447.879 507.879C447.316 508.441 447 509.204 447 510V510Z" stroke="#3B96D7"/>
<path d="M480 540L420 600L480 540Z" stroke="#1200FF" stroke-width="3"/>
<path d="M505 30C505 31.3261 505.527 32.5979 506.464 33.5355C507.402 34.4732 508.674 35 510 35C511.326 35 512.598 34.4732 513.536 33.5355C514.473 32.5979 515 31.3261 515 30C515 28.6739 514.473 27.4021 513.536 26.4645C512.598 25.5268 511.326 25 510 25C508.674 25 507.402 25.5268 506.464 26.4645C505.527 27.4021 505 28.6739 505 30V30Z" stroke="#3B96D7"/>
<path d="M516 84L504 96L516 84Z" stroke="#1200FF"/>
<path d="M505 150C505 151.326 505.527 152.598 506.464 153.536C507.402 154.473 508.674 155 510 155C511.326 155 512.598 154.473 513.536 153.536C514.473 152.598 515 151.326 515 150C515 148.674 514.473 147.402 513.536 146.464C512.598 145.527 511.326 145 510 145C508.674 145 507.402 145.527 506.464 146.464C505.527 147.402 505 148.674 505 150V150Z" stroke="#3B96D7"/>
<path d="M512 208L508 212L512 208Z" stroke="#2D00A3"/>
<path d="M540 240L480 300L540 240Z" stroke="#1200FF" stroke-width="3"/>
<path d="M516 324L504 336L516 324Z" stroke="#1200FF"/>
<path d="M505 390C505 391.326 505.527 392.598 506.464 393.536C507.402 394.473 508.674 395 510 395C511.326 395 512.598 394.473 513.536 393.536C514.473 392.598 515 391.326 515 390C515 388.674 514.473 387.402 513.536 386.464C512.598 385.527 511.326 385 510 385C508.674 385 507.402 385.527 506.464 386.464C505.527 387.402 505 388.674 505 390V390Z" stroke="#1200FF"/>
<path d="M507 450C507 450.796 507.316 451.559 507.879 452.121C508.441 452.684 509.204 453 510 453C510.796 453 511.559 452.684 512.121 452.121C512.684 451.559 513 450.796 513 450C513 449.204 512.684 448.441 512.121 447.879C511.559 447.316 510.796 447 510 447C509.204 447 508.441 447.316 507.879 447.879C507.316 448.441 507 449.204 507 450V450Z" stroke="#2D00A3"/>
<path d="M505 510C505 511.326 505.527 512.598 506.464 513.536C507.402 514.473 508.674 515 510 515C511.326 515 512.598 514.473 513.536 513.536C514.473 512.598 515 511.326 515 510C515 508.674 514.473 507.402 513.536 506.464C512.598 505.527 511.326 505 510 505C508.674 505 507.402 505.527 506.464 506.464C505.527 507.402 505 508.674 505 510V510Z" stroke="#1200FF"/>
<path d="M565 30C565 31.3261 565.527 32.5979 566.464 33.5355C567.402 34.4732 568.674 35 570 35C571.326 35 572.598 34.4732 573.536 33.5355C574.473 32.5979 575 31.3261 575 30C575 28.6739 574.473 27.4021 573.536 26.4645C572.598 25.5268 571.326 25 570 25C568.674 25 567.402 25.5268 566.464 26.4645C565.527 27.4021 565 28.6739 565 30V30Z" stroke="#3B96D7"/>
<path d="M569 90C569 90.2652 569.105 90.5196 569.293 90.7071C569.48 90.8946 569.735 91 570 91C570.265 91 570.52 90.8946 570.707 90.7071C570.895 90.5196 571 90.2652 571 90C571 89.7348 570.895 89.4804 570.707 89.2929C570.52 89.1054 570.265 89 570 89C569.735 89 569.48 89.1054 569.293 89.2929C569.105 89.4804 569 89.7348 569 90V90Z" stroke="#2D00A3"/>
<path d="M569 150C569 150.265 569.105 150.52 569.293 150.707C569.48 150.895 569.735 151 570 151C570.265 151 570.52 150.895 570.707 150.707C570.895 150.52 571 150.265 571 150C571 149.735 570.895 149.48 570.707 149.293C570.52 149.105 570.265 149 570 149C569.735 149 569.48 149.105 569.293 149.293C569.105 149.48 569 149.735 569 150V150Z" stroke="#3B96D7"/>
<path d="M567 210C567 210.796 567.316 211.559 567.879 212.121C568.441 212.684 569.204 213 570 213C570.796 213 571.559 212.684 572.121 212.121C572.684 211.559 573 210.796 573 210C573 209.204 572.684 208.441 572.121 207.879C571.559 207.316 570.796 207 570 207C569.204 207 568.441 207.316 567.879 207.879C567.316 208.441 567 209.204 567 210V210Z" stroke="#3B96D7"/>
<path d="M565 270C565 271.326 565.527 272.598 566.464 273.536C567.402 274.473 568.674 275 570 275C571.326 275 572.598 274.473 573.536 273.536C574.473 272.598 575 271.326 575 270C575 268.674 574.473 267.402 573.536 266.464C572.598 265.527 571.326 265 570 265C568.674 265 567.402 265.527 566.464 266.464C565.527 267.402 565 268.674 565 270V270Z" stroke="#2D00A3"/>
<path d="M572 328L568 332L572 328Z" stroke="#1200FF"/>
<path d="M576 384L564 396L576 384Z" stroke="#3B96D7"/>
<path d="M569 450C569 450.265 569.105 450.52 569.293 450.707C569.48 450.895 569.735 451 570 451C570.265 451 570.52 450.895 570.707 450.707C570.895 450.52 571 450.265 571 450C571 449.735 570.895 449.48 570.707 449.293C570.52 449.105 570.265 449 570 449C569.735 449 569.48 449.105 569.293 449.293C569.105 449.48 569 449.735 569 450V450Z" stroke="#3B96D7"/>
<path d="M569 510C569 510.265 569.105 510.52 569.293 510.707C569.48 510.895 569.735 511 570 511C570.265 511 570.52 510.895 570.707 510.707C570.895 510.52 571 510.265 571 510C571 509.735 570.895 509.48 570.707 509.293C570.52 509.105 570.265 509 570 509C569.735 509 569.48 509.105 569.293 509.293C569.105 509.48 569 509.735 569 510V510Z" stroke="#2D00A3"/>
<path d="M660 0L600 60L660 0Z" stroke="#3B96D7" stroke-width="3"/>
<path d="M629 90C629 90.2652 629.105 90.5196 629.293 90.7071C629.48 90.8946 629.735 91 630 91C630.265 91 630.52 90.8946 630.707 90.7071C630.895 90.5196 631 90.2652 631 90C631 89.7348 630.895 89.4804 630.707 89.2929C630.52 89.1054 630.265 89 630 89C629.735 89 629.48 89.1054 629.293 89.2929C629.105 89.4804 629 89.7348 629 90V90Z" stroke="#1200FF"/>
<path d="M632 148L628 152L632 148Z" stroke="#1200FF"/>
<path d="M636 204L624 216L636 204Z" stroke="#3B96D7"/>
<path d="M625 270C625 271.326 625.527 272.598 626.464 273.536C627.402 274.473 628.674 275 630 275C631.326 275 632.598 274.473 633.536 273.536C634.473 272.598 635 271.326 635 270C635 268.674 634.473 267.402 633.536 266.464C632.598 265.527 631.326 265 630 265C628.674 265 627.402 265.527 626.464 266.464C625.527 267.402 625 268.674 625 270V270Z" stroke="#1200FF"/>
<path d="M636 324L624 336L636 324Z" stroke="#3B96D7"/>
<path d="M632 388L628 392L632 388Z" stroke="#3B96D7"/>
<path d="M636 444L624 456L636 444Z" stroke="#3B96D7"/>
<path d="M636 504L624 516L636 504Z" stroke="#1200FF"/>
<path d="M687 30C687 30.7956 687.316 31.5587 687.879 32.1213C688.441 32.6839 689.204 33 690 33C690.796 33 691.559 32.6839 692.121 32.1213C692.684 31.5587 693 30.7956 693 30C693 29.2044 692.684 28.4413 692.121 27.8787C691.559 27.3161 690.796 27 690 27C689.204 27 688.441 27.3161 687.879 27.8787C687.316 28.4413 687 29.2044 687 30V30Z" stroke="#3B96D7"/>
<path d="M696 84L684 96L696 84Z" stroke="#1200FF"/>
<path d="M692 148L688 152L692 148Z" stroke="#3B96D7"/>
<path d="M685 210C685 211.326 685.527 212.598 686.464 213.536C687.402 214.473 688.674 215 690 215C691.326 215 692.598 214.473 693.536 213.536C694.473 212.598 695 211.326 695 210C695 208.674 694.473 207.402 693.536 206.464C692.598 205.527 691.326 205 690 205C688.674 205 687.402 205.527 686.464 206.464C685.527 207.402 685 208.674 685 210V210Z" stroke="#2D00A3"/>
<path d="M685 270C685 271.326 685.527 272.598 686.464 273.536C687.402 274.473 688.674 275 690 275C691.326 275 692.598 274.473 693.536 273.536C694.473 272.598 695 271.326 695 270C695 268.674 694.473 267.402 693.536 266.464C692.598 265.527 691.326 265 690 265C688.674 265 687.402 265.527 686.464 266.464C685.527 267.402 685 268.674 685 270V270Z" stroke="#1200FF"/>
<path d="M685 330C685 331.326 685.527 332.598 686.464 333.536C687.402 334.473 688.674 335 690 335C691.326 335 692.598 334.473 693.536 333.536C694.473 332.598 695 331.326 695 330C695 328.674 694.473 327.402 693.536 326.464C692.598 325.527 691.326 325 690 325C688.674 325 687.402 325.527 686.464 326.464C685.527 327.402 685 328.674 685 330V330Z" stroke="#2D00A3"/>
<path d="M692 388L688 392L692 388Z" stroke="#1200FF"/>
<path d="M685 450C685 451.326 685.527 452.598 686.464 453.536C687.402 454.473 688.674 455 690 455C691.326 455 692.598 454.473 693.536 453.536C694.473 452.598 695 451.326 695 450C695 448.674 694.473 447.402 693.536 446.464C692.598 445.527 691.326 445 690 445C688.674 445 687.402 445.527 686.464 446.464C685.527 447.402 685 448.674 685 450V450Z" stroke="#2D00A3"/>
<path d="M687 510C687 510.796 687.316 511.559 687.879 512.121C688.441 512.684 689.204 513 690 513C690.796 513 691.559 512.684 692.121 512.121C692.684 511.559 693 510.796 693 510C693 509.204 692.684 508.441 692.121 507.879C691.559 507.316 690.796 507 690 507C689.204 507 688.441 507.316 687.879 507.879C687.316 508.441 687 509.204 687 510V510Z" stroke="#1200FF"/>
<path d="M756 24L744 36L756 24Z" stroke="#2D00A3"/>
<path d="M756 84L744 96L756 84Z" stroke="#3B96D7"/>
<path d="M745 150C745 151.326 745.527 152.598 746.464 153.536C747.402 154.473 748.674 155 750 155C751.326 155 752.598 154.473 753.536 153.536C754.473 152.598 755 151.326 755 150C755 148.674 754.473 147.402 753.536 146.464C752.598 145.527 751.326 145 750 145C748.674 145 747.402 145.527 746.464 146.464C745.527 147.402 745 148.674 745 150V150Z" stroke="#1200FF"/>
<path d="M780 180L720 240L780 180Z" stroke="#3B96D7" stroke-width="3"/>
<path d="M745 270C745 271.326 745.527 272.598 746.464 273.536C747.402 274.473 748.674 275 750 275C751.326 275 752.598 274.473 753.536 273.536C754.473 272.598 755 271.326 755 270C755 268.674 754.473 267.402 753.536 266.464C752.598 265.527 751.326 265 750 265C748.674 265 747.402 265.527 746.464 266.464C745.527 267.402 745 268.674 745 270V270Z" stroke="#1200FF"/>
<path d="M756 324L744 336L756 324Z" stroke="#3B96D7"/>
<path d="M756 384L744 396L756 384Z" stroke="#3B96D7"/>
<path d="M745 450C745 451.326 745.527 452.598 746.464 453.536C747.402 454.473 748.674 455 750 455C751.326 455 752.598 454.473 753.536 453.536C754.473 452.598 755 451.326 755 450C755 448.674 754.473 447.402 753.536 446.464C752.598 445.527 751.326 445 750 445C748.674 445 747.402 445.527 746.464 446.464C745.527 447.402 745 448.674 745 450V450Z" stroke="#3B96D7"/>
<path d="M749 510C749 510.265 749.105 510.52 749.293 510.707C749.48 510.895 749.735 511 750 511C750.265 511 750.52 510.895 750.707 510.707C750.895 510.52 751 510.265 751 510C751 509.735 750.895 509.48 750.707 509.293C750.52 509.105 750.265 509 750 509C749.735 509 749.48 509.105 749.293 509.293C749.105 509.48 749 509.735 749 510V510Z" stroke="#2D00A3"/>
<path d="M805 30C805 31.3261 805.527 32.5979 806.464 33.5355C807.402 34.4732 808.674 35 810 35C811.326 35 812.598 34.4732 813.536 33.5355C814.473 32.5979 815 31.3261 815 30C815 28.6739 814.473 27.4021 813.536 26.4645C812.598 25.5268 811.326 25 810 25C808.674 25 807.402 25.5268 806.464 26.4645C805.527 27.4021 805 28.6739 805 30V30Z" stroke="#1200FF"/>
<path d="M840 60L780 120L840 60Z" stroke="#2D00A3" stroke-width="3"/>
<path d="M812 148L808 152L812 148Z" stroke="#3B96D7"/>
<path d="M805 210C805 211.326 805.527 212.598 806.464 213.536C807.402 214.473 808.674 215 810 215C811.326 215 812.598 214.473 813.536 213.536C814.473 212.598 815 211.326 815 210C815 208.674 814.473 207.402 813.536 206.464C812.598 205.527 811.326 205 810 205C808.674 205 807.402 205.527 806.464 206.464C805.527 207.402 805 208.674 805 210V210Z" stroke="#1200FF"/>
<path d="M816 264L804 276L816 264Z" stroke="#3B96D7"/>
<path d="M840 300L780 360L840 300Z" stroke="#2D00A3" stroke-width="3"/>
<path d="M805 390C805 391.326 805.527 392.598 806.464 393.536C807.402 394.473 808.674 395 810 395C811.326 395 812.598 394.473 813.536 393.536C814.473 392.598 815 391.326 815 390C815 388.674 814.473 387.402 813.536 386.464C812.598 385.527 811.326 385 810 385C808.674 385 807.402 385.527 806.464 386.464C805.527 387.402 805 388.674 805 390V390Z" stroke="#3B96D7"/>
<path d="M809 450C809 450.265 809.105 450.52 809.293 450.707C809.48 450.895 809.735 451 810 451C810.265 451 810.52 450.895 810.707 450.707C810.895 450.52 811 450.265 811 450C811 449.735 810.895 449.48 810.707 449.293C810.52 449.105 810.265 449 810 449C809.735 449 809.48 449.105 809.293 449.293C809.105 449.48 809 449.735 809 450V450Z" stroke="#2D00A3"/>
<path d="M840 480L780 540L840 480Z" stroke="#3B96D7" stroke-width="3"/>
<path d="M876 24L864 36L876 24Z" stroke="#1200FF"/>
<path d="M876 84L864 96L876 84Z" stroke="#1200FF"/>
<path d="M869 150C869 150.265 869.105 150.52 869.293 150.707C869.48 150.895 869.735 151 870 151C870.265 151 870.52 150.895 870.707 150.707C870.895 150.52 871 150.265 871 150C871 149.735 870.895 149.48 870.707 149.293C870.52 149.105 870.265 149 870 149C869.735 149 869.48 149.105 869.293 149.293C869.105 149.48 869 149.735 869 150V150Z" stroke="#3B96D7"/>
<path d="M867 210C867 210.796 867.316 211.559 867.879 212.121C868.441 212.684 869.204 213 870 213C870.796 213 871.559 212.684 872.121 212.121C872.684 211.559 873 210.796 873 210C873 209.204 872.684 208.441 872.121 207.879C871.559 207.316 870.796 207 870 207C869.204 207 868.441 207.316 867.879 207.879C867.316 208.441 867 209.204 867 210V210Z" stroke="#3B96D7"/>
<path d="M865 270C865 271.326 865.527 272.598 866.464 273.536C867.402 274.473 868.674 275 870 275C871.326 275 872.598 274.473 873.536 273.536C874.473 272.598 875 271.326 875 270C875 268.674 874.473 267.402 873.536 266.464C872.598 265.527 871.326 265 870 265C868.674 265 867.402 265.527 866.464 266.464C865.527 267.402 865 268.674 865 270V270Z" stroke="#2D00A3"/>
<path d="M876 324L864 336L876 324Z" stroke="#2D00A3"/>
<path d="M872 388L868 392L872 388Z" stroke="#2D00A3"/>
<path d="M865 450C865 451.326 865.527 452.598 866.464 453.536C867.402 454.473 868.674 455 870 455C871.326 455 872.598 454.473 873.536 453.536C874.473 452.598 875 451.326 875 450C875 448.674 874.473 447.402 873.536 446.464C872.598 445.527 871.326 445 870 445C868.674 445 867.402 445.527 866.464 446.464C865.527 447.402 865 448.674 865 450V450Z" stroke="#3B96D7"/>
<path d="M872 508L868 512L872 508Z" stroke="#1200FF"/>
<path d="M900 540L840 600L900 540Z" stroke="#3B96D7" stroke-width="3"/>
<path d="M932 28L928 32L932 28Z" stroke="#1200FF"/>
<path d="M936 84L924 96L936 84Z" stroke="#1200FF"/>
<path d="M929 150C929 150.265 929.105 150.52 929.293 150.707C929.48 150.895 929.735 151 930 151C930.265 151 930.52 150.895 930.707 150.707C930.895 150.52 931 150.265 931 150C931 149.735 930.895 149.48 930.707 149.293C930.52 149.105 930.265 149 930 149C929.735 149 929.48 149.105 929.293 149.293C929.105 149.48 929 149.735 929 150V150Z" stroke="#1200FF"/>
<path d="M925 210C925 211.326 925.527 212.598 926.464 213.536C927.402 214.473 928.674 215 930 215C931.326 215 932.598 214.473 933.536 213.536C934.473 212.598 935 211.326 935 210C935 208.674 934.473 207.402 933.536 206.464C932.598 205.527 931.326 205 930 205C928.674 205 927.402 205.527 926.464 206.464C925.527 207.402 925 208.674 925 210V210Z" stroke="#1200FF"/>
<path d="M932 268L928 272L932 268Z" stroke="#3B96D7"/>
<path d="M927 330C927 330.796 927.316 331.559 927.879 332.121C928.441 332.684 929.204 333 930 333C930.796 333 931.559 332.684 932.121 332.121C932.684 331.559 933 330.796 933 330C933 329.204 932.684 328.441 932.121 327.879C931.559 327.316 930.796 327 930 327C929.204 327 928.441 327.316 927.879 327.879C927.316 328.441 927 329.204 927 330V330Z" stroke="#1200FF"/>
<path d="M925 390C925 391.326 925.527 392.598 926.464 393.536C927.402 394.473 928.674 395 930 395C931.326 395 932.598 394.473 933.536 393.536C934.473 392.598 935 391.326 935 390C935 388.674 934.473 387.402 933.536 386.464C932.598 385.527 931.326 385 930 385C928.674 385 927.402 385.527 926.464 386.464C925.527 387.402 925 388.674 925 390V390Z" stroke="#2D00A3"/>
<path d="M936 444L924 456L936 444Z" stroke="#1200FF"/>
<path d="M936 504L924 516L936 504Z" stroke="#2D00A3"/>
<path d="M992 28L988 32L992 28Z" stroke="#2D00A3"/>
<path d="M996 84L984 96L996 84Z" stroke="#2D00A3"/>
<path d="M1020 120L960 180L1020 120Z" stroke="#2D00A3" stroke-width="3"/>
<path d="M985 210C985 211.326 985.527 212.598 986.464 213.536C987.402 214.473 988.674 215 990 215C991.326 215 992.598 214.473 993.536 213.536C994.473 212.598 995 211.326 995 210C995 208.674 994.473 207.402 993.536 206.464C992.598 205.527 991.326 205 990 205C988.674 205 987.402 205.527 986.464 206.464C985.527 207.402 985 208.674 985 210V210Z" stroke="#2D00A3"/>
<path d="M985 270C985 271.326 985.527 272.598 986.464 273.536C987.402 274.473 988.674 275 990 275C991.326 275 992.598 274.473 993.536 273.536C994.473 272.598 995 271.326 995 270C995 268.674 994.473 267.402 993.536 266.464C992.598 265.527 991.326 265 990 265C988.674 265 987.402 265.527 986.464 266.464C985.527 267.402 985 268.674 985 270V270Z" stroke="#2D00A3"/>
<path d="M996 324L984 336L996 324Z" stroke="#1200FF"/>
<path d="M985 390C985 391.326 985.527 392.598 986.464 393.536C987.402 394.473 988.674 395 990 395C991.326 395 992.598 394.473 993.536 393.536C994.473 392.598 995 391.326 995 390C995 388.674 994.473 387.402 993.536 386.464C992.598 385.527 991.326 385 990 385C988.674 385 987.402 385.527 986.464 386.464C985.527 387.402 985 388.674 985 390V390Z" stroke="#3B96D7"/>
<path d="M992 448L988 452L992 448Z" stroke="#3B96D7"/>
<path d="M992 508L988 512L992 508Z" stroke="#3B96D7"/>
<path d="M1052 28L1048 32L1052 28Z" stroke="#2D00A3"/>
<path d="M1056 84L1044 96L1056 84Z" stroke="#2D00A3"/>
<path d="M1052 148L1048 152L1052 148Z" stroke="#1200FF"/>
<path d="M1049 210C1049 210.265 1049.11 210.52 1049.29 210.707C1049.48 210.895 1049.73 211 1050 211C1050.27 211 1050.52 210.895 1050.71 210.707C1050.89 210.52 1051 210.265 1051 210C1051 209.735 1050.89 209.48 1050.71 209.293C1050.52 209.105 1050.27 209 1050 209C1049.73 209 1049.48 209.105 1049.29 209.293C1049.11 209.48 1049 209.735 1049 210V210Z" stroke="#3B96D7"/>
<path d="M1056 264L1044 276L1056 264Z" stroke="#3B96D7"/>
<path d="M1045 330C1045 331.326 1045.53 332.598 1046.46 333.536C1047.4 334.473 1048.67 335 1050 335C1051.33 335 1052.6 334.473 1053.54 333.536C1054.47 332.598 1055 331.326 1055 330C1055 328.674 1054.47 327.402 1053.54 326.464C1052.6 325.527 1051.33 325 1050 325C1048.67 325 1047.4 325.527 1046.46 326.464C1045.53 327.402 1045 328.674 1045 330V330Z" stroke="#3B96D7"/>
<path d="M1047 390C1047 390.796 1047.32 391.559 1047.88 392.121C1048.44 392.684 1049.2 393 1050 393C1050.8 393 1051.56 392.684 1052.12 392.121C1052.68 391.559 1053 390.796 1053 390C1053 389.204 1052.68 388.441 1052.12 387.879C1051.56 387.316 1050.8 387 1050 387C1049.2 387 1048.44 387.316 1047.88 387.879C1047.32 388.441 1047 389.204 1047 390V390Z" stroke="#2D00A3"/>
<path d="M1045 450C1045 451.326 1045.53 452.598 1046.46 453.536C1047.4 454.473 1048.67 455 1050 455C1051.33 455 1052.6 454.473 1053.54 453.536C1054.47 452.598 1055 451.326 1055 450C1055 448.674 1054.47 447.402 1053.54 446.464C1052.6 445.527 1051.33 445 1050 445C1048.67 445 1047.4 445.527 1046.46 446.464C1045.53 447.402 1045 448.674 1045 450V450Z" stroke="#1200FF"/>
<path d="M1045 510C1045 511.326 1045.53 512.598 1046.46 513.536C1047.4 514.473 1048.67 515 1050 515C1051.33 515 1052.6 514.473 1053.54 513.536C1054.47 512.598 1055 511.326 1055 510C1055 508.674 1054.47 507.402 1053.54 506.464C1052.6 505.527 1051.33 505 1050 505C1048.67 505 1047.4 505.527 1046.46 506.464C1045.53 507.402 1045 508.674 1045 510V510Z" stroke="#1200FF"/>
<path d="M1109 30C1109 30.2652 1109.11 30.5196 1109.29 30.7071C1109.48 30.8946 1109.73 31 1110 31C1110.27 31 1110.52 30.8946 1110.71 30.7071C1110.89 30.5196 1111 30.2652 1111 30C1111 29.7348 1110.89 29.4804 1110.71 29.2929C1110.52 29.1054 1110.27 29 1110 29C1109.73 29 1109.48 29.1054 1109.29 29.2929C1109.11 29.4804 1109 29.7348 1109 30V30Z" stroke="#1200FF"/>
<path d="M1105 90C1105 91.3261 1105.53 92.5979 1106.46 93.5355C1107.4 94.4732 1108.67 95 1110 95C1111.33 95 1112.6 94.4732 1113.54 93.5355C1114.47 92.5979 1115 91.3261 1115 90C1115 88.6739 1114.47 87.4021 1113.54 86.4645C1112.6 85.5268 1111.33 85 1110 85C1108.67 85 1107.4 85.5268 1106.46 86.4645C1105.53 87.4021 1105 88.6739 1105 90V90Z" stroke="#2D00A3"/>
<path d="M1109 150C1109 150.265 1109.11 150.52 1109.29 150.707C1109.48 150.895 1109.73 151 1110 151C1110.27 151 1110.52 150.895 1110.71 150.707C1110.89 150.52 1111 150.265 1111 150C1111 149.735 1110.89 149.48 1110.71 149.293C1110.52 149.105 1110.27 149 1110 149C1109.73 149 1109.48 149.105 1109.29 149.293C1109.11 149.48 1109 149.735 1109 150V150Z" stroke="#2D00A3"/>
<path d="M1112 208L1108 212L1112 208Z" stroke="#3B96D7"/>
<path d="M1112 268L1108 272L1112 268Z" stroke="#2D00A3"/>
<path d="M1112 328L1108 332L1112 328Z" stroke="#3B96D7"/>
<path d="M1105 390C1105 391.326 1105.53 392.598 1106.46 393.536C1107.4 394.473 1108.67 395 1110 395C1111.33 395 1112.6 394.473 1113.54 393.536C1114.47 392.598 1115 391.326 1115 390C1115 388.674 1114.47 387.402 1113.54 386.464C1112.6 385.527 1111.33 385 1110 385C1108.67 385 1107.4 385.527 1106.46 386.464C1105.53 387.402 1105 388.674 1105 390V390Z" stroke="#2D00A3"/>
<path d="M1116 444L1104 456L1116 444Z" stroke="#3B96D7"/>
<path d="M1109 510C1109 510.265 1109.11 510.52 1109.29 510.707C1109.48 510.895 1109.73 511 1110 511C1110.27 511 1110.52 510.895 1110.71 510.707C1110.89 510.52 1111 510.265 1111 510C1111 509.735 1110.89 509.48 1110.71 509.293C1110.52 509.105 1110.27 509 1110 509C1109.73 509 1109.48 509.105 1109.29 509.293C1109.11 509.48 1109 509.735 1109 510V510Z" stroke="#3B96D7"/>
<path d="M1169 30C1169 30.2652 1169.11 30.5196 1169.29 30.7071C1169.48 30.8946 1169.73 31 1170 31C1170.27 31 1170.52 30.8946 1170.71 30.7071C1170.89 30.5196 1171 30.2652 1171 30C1171 29.7348 1170.89 29.4804 1170.71 29.2929C1170.52 29.1054 1170.27 29 1170 29C1169.73 29 1169.48 29.1054 1169.29 29.2929C1169.11 29.4804 1169 29.7348 1169 30V30Z" stroke="#2D00A3"/>
<path d="M1172 88L1168 92L1172 88Z" stroke="#2D00A3"/>
<path d="M1176 144L1164 156L1176 144Z" stroke="#2D00A3"/>
<path d="M1169 210C1169 210.265 1169.11 210.52 1169.29 210.707C1169.48 210.895 1169.73 211 1170 211C1170.27 211 1170.52 210.895 1170.71 210.707C1170.89 210.52 1171 210.265 1171 210C1171 209.735 1170.89 209.48 1170.71 209.293C1170.52 209.105 1170.27 209 1170 209C1169.73 209 1169.48 209.105 1169.29 209.293C1169.11 209.48 1169 209.735 1169 210V210Z" stroke="#2D00A3"/>
<path d="M1176 264L1164 276L1176 264Z" stroke="#3B96D7"/>
<path d="M1176 324L1164 336L1176 324Z" stroke="#2D00A3"/>
<path d="M1169 390C1169 390.265 1169.11 390.52 1169.29 390.707C1169.48 390.895 1169.73 391 1170 391C1170.27 391 1170.52 390.895 1170.71 390.707C1170.89 390.52 1171 390.265 1171 390C1171 389.735 1170.89 389.48 1170.71 389.293C1170.52 389.105 1170.27 389 1170 389C1169.73 389 1169.48 389.105 1169.29 389.293C1169.11 389.48 1169 389.735 1169 390V390Z" stroke="#1200FF"/>
<path d="M1165 450C1165 451.326 1165.53 452.598 1166.46 453.536C1167.4 454.473 1168.67 455 1170 455C1171.33 455 1172.6 454.473 1173.54 453.536C1174.47 452.598 1175 451.326 1175 450C1175 448.674 1174.47 447.402 1173.54 446.464C1172.6 445.527 1171.33 445 1170 445C1168.67 445 1167.4 445.527 1166.46 446.464C1165.53 447.402 1165 448.674 1165 450V450Z" stroke="#2D00A3"/>
<path d="M1167 510C1167 510.796 1167.32 511.559 1167.88 512.121C1168.44 512.684 1169.2 513 1170 513C1170.8 513 1171.56 512.684 1172.12 512.121C1172.68 511.559 1173 510.796 1173 510C1173 509.204 1172.68 508.441 1172.12 507.879C1171.56 507.316 1170.8 507 1170 507C1169.2 507 1168.44 507.316 1167.88 507.879C1167.32 508.441 1167 509.204 1167 510V510Z" stroke="#3B96D7"/>
<path d="M1200 540L1140 600L1200 540Z" stroke="#1200FF" stroke-width="3"/>
<path d="M1225 30C1225 31.3261 1225.53 32.5979 1226.46 33.5355C1227.4 34.4732 1228.67 35 1230 35C1231.33 35 1232.6 34.4732 1233.54 33.5355C1234.47 32.5979 1235 31.3261 1235 30C1235 28.6739 1234.47 27.4021 1233.54 26.4645C1232.6 25.5268 1231.33 25 1230 25C1228.67 25 1227.4 25.5268 1226.46 26.4645C1225.53 27.4021 1225 28.6739 1225 30V30Z" stroke="#3B96D7"/>
<path d="M1236 84L1224 96L1236 84Z" stroke="#1200FF"/>
<path d="M1225 150C1225 151.326 1225.53 152.598 1226.46 153.536C1227.4 154.473 1228.67 155 1230 155C1231.33 155 1232.6 154.473 1233.54 153.536C1234.47 152.598 1235 151.326 1235 150C1235 148.674 1234.47 147.402 1233.54 146.464C1232.6 145.527 1231.33 145 1230 145C1228.67 145 1227.4 145.527 1226.46 146.464C1225.53 147.402 1225 148.674 1225 150V150Z" stroke="#3B96D7"/>
<path d="M1232 208L1228 212L1232 208Z" stroke="#2D00A3"/>
<path d="M1260 240L1200 300L1260 240Z" stroke="#1200FF" stroke-width="3"/>
<path d="M1236 324L1224 336L1236 324Z" stroke="#1200FF"/>
<path d="M1225 390C1225 391.326 1225.53 392.598 1226.46 393.536C1227.4 394.473 1228.67 395 1230 395C1231.33 395 1232.6 394.473 1233.54 393.536C1234.47 392.598 1235 391.326 1235 390C1235 388.674 1234.47 387.402 1233.54 386.464C1232.6 385.527 1231.33 385 1230 385C1228.67 385 1227.4 385.527 1226.46 386.464C1225.53 387.402 1225 388.674 1225 390V390Z" stroke="#1200FF"/>
<path d="M1227 450C1227 450.796 1227.32 451.559 1227.88 452.121C1228.44 452.684 1229.2 453 1230 453C1230.8 453 1231.56 452.684 1232.12 452.121C1232.68 451.559 1233 450.796 1233 450C1233 449.204 1232.68 448.441 1232.12 447.879C1231.56 447.316 1230.8 447 1230 447C1229.2 447 1228.44 447.316 1227.88 447.879C1227.32 448.441 1227 449.204 1227 450V450Z" stroke="#2D00A3"/>
<path d="M1225 510C1225 511.326 1225.53 512.598 1226.46 513.536C1227.4 514.473 1228.67 515 1230 515C1231.33 515 1232.6 514.473 1233.54 513.536C1234.47 512.598 1235 511.326 1235 510C1235 508.674 1234.47 507.402 1233.54 506.464C1232.6 505.527 1231.33 505 1230 505C1228.67 505 1227.4 505.527 1226.46 506.464C1225.53 507.402 1225 508.674 1225 510V510Z" stroke="#1200FF"/>
<path d="M1285 30C1285 31.3261 1285.53 32.5979 1286.46 33.5355C1287.4 34.4732 1288.67 35 1290 35C1291.33 35 1292.6 34.4732 1293.54 33.5355C1294.47 32.5979 1295 31.3261 1295 30C1295 28.6739 1294.47 27.4021 1293.54 26.4645C1292.6 25.5268 1291.33 25 1290 25C1288.67 25 1287.4 25.5268 1286.46 26.4645C1285.53 27.4021 1285 28.6739 1285 30V30Z" stroke="#3B96D7"/>
<path d="M1289 90C1289 90.2652 1289.11 90.5196 1289.29 90.7071C1289.48 90.8946 1289.73 91 1290 91C1290.27 91 1290.52 90.8946 1290.71 90.7071C1290.89 90.5196 1291 90.2652 1291 90C1291 89.7348 1290.89 89.4804 1290.71 89.2929C1290.52 89.1054 1290.27 89 1290 89C1289.73 89 1289.48 89.1054 1289.29 89.2929C1289.11 89.4804 1289 89.7348 1289 90V90Z" stroke="#2D00A3"/>
<path d="M1289 150C1289 150.265 1289.11 150.52 1289.29 150.707C1289.48 150.895 1289.73 151 1290 151C1290.27 151 1290.52 150.895 1290.71 150.707C1290.89 150.52 1291 150.265 1291 150C1291 149.735 1290.89 149.48 1290.71 149.293C1290.52 149.105 1290.27 149 1290 149C1289.73 149 1289.48 149.105 1289.29 149.293C1289.11 149.48 1289 149.735 1289 150V150Z" stroke="#3B96D7"/>
<path d="M1287 210C1287 210.796 1287.32 211.559 1287.88 212.121C1288.44 212.684 1289.2 213 1290 213C1290.8 213 1291.56 212.684 1292.12 212.121C1292.68 211.559 1293 210.796 1293 210C1293 209.204 1292.68 208.441 1292.12 207.879C1291.56 207.316 1290.8 207 1290 207C1289.2 207 1288.44 207.316 1287.88 207.879C1287.32 208.441 1287 209.204 1287 210V210Z" stroke="#3B96D7"/>
<path d="M1285 270C1285 271.326 1285.53 272.598 1286.46 273.536C1287.4 274.473 1288.67 275 1290 275C1291.33 275 1292.6 274.473 1293.54 273.536C1294.47 272.598 1295 271.326 1295 270C1295 268.674 1294.47 267.402 1293.54 266.464C1292.6 265.527 1291.33 265 1290 265C1288.67 265 1287.4 265.527 1286.46 266.464C1285.53 267.402 1285 268.674 1285 270V270Z" stroke="#2D00A3"/>
<path d="M1292 328L1288 332L1292 328Z" stroke="#1200FF"/>
<path d="M1296 384L1284 396L1296 384Z" stroke="#3B96D7"/>
<path d="M1289 450C1289 450.265 1289.11 450.52 1289.29 450.707C1289.48 450.895 1289.73 451 1290 451C1290.27 451 1290.52 450.895 1290.71 450.707C1290.89 450.52 1291 450.265 1291 450C1291 449.735 1290.89 449.48 1290.71 449.293C1290.52 449.105 1290.27 449 1290 449C1289.73 449 1289.48 449.105 1289.29 449.293C1289.11 449.48 1289 449.735 1289 450V450Z" stroke="#3B96D7"/>
<path d="M1289 510C1289 510.265 1289.11 510.52 1289.29 510.707C1289.48 510.895 1289.73 511 1290 511C1290.27 511 1290.52 510.895 1290.71 510.707C1290.89 510.52 1291 510.265 1291 510C1291 509.735 1290.89 509.48 1290.71 509.293C1290.52 509.105 1290.27 509 1290 509C1289.73 509 1289.48 509.105 1289.29 509.293C1289.11 509.48 1289 509.735 1289 510V510Z" stroke="#2D00A3"/>
<path d="M1380 0L1320 60L1380 0Z" stroke="#3B96D7" stroke-width="3"/>
<path d="M1349 90C1349 90.2652 1349.11 90.5196 1349.29 90.7071C1349.48 90.8946 1349.73 91 1350 91C1350.27 91 1350.52 90.8946 1350.71 90.7071C1350.89 90.5196 1351 90.2652 1351 90C1351 89.7348 1350.89 89.4804 1350.71 89.2929C1350.52 89.1054 1350.27 89 1350 89C1349.73 89 1349.48 89.1054 1349.29 89.2929C1349.11 89.4804 1349 89.7348 1349 90V90Z" stroke="#1200FF"/>
<path d="M1352 148L1348 152L1352 148Z" stroke="#1200FF"/>
<path d="M1356 204L1344 216L1356 204Z" stroke="#3B96D7"/>
<path d="M1345 270C1345 271.326 1345.53 272.598 1346.46 273.536C1347.4 274.473 1348.67 275 1350 275C1351.33 275 1352.6 274.473 1353.54 273.536C1354.47 272.598 1355 271.326 1355 270C1355 268.674 1354.47 267.402 1353.54 266.464C1352.6 265.527 1351.33 265 1350 265C1348.67 265 1347.4 265.527 1346.46 266.464C1345.53 267.402 1345 268.674 1345 270V270Z" stroke="#1200FF"/>
<path d="M1356 324L1344 336L1356 324Z" stroke="#3B96D7"/>
<path d="M1352 388L1348 392L1352 388Z" stroke="#3B96D7"/>
<path d="M1356 444L1344 456L1356 444Z" stroke="#3B96D7"/>
<path d="M1356 504L1344 516L1356 504Z" stroke="#1200FF"/>
<path d="M1407 30C1407 30.7956 1407.32 31.5587 1407.88 32.1213C1408.44 32.6839 1409.2 33 1410 33C1410.8 33 1411.56 32.6839 1412.12 32.1213C1412.68 31.5587 1413 30.7956 1413 30C1413 29.2044 1412.68 28.4413 1412.12 27.8787C1411.56 27.3161 1410.8 27 1410 27C1409.2 27 1408.44 27.3161 1407.88 27.8787C1407.32 28.4413 1407 29.2044 1407 30V30Z" stroke="#3B96D7"/>
<path d="M1416 84L1404 96L1416 84Z" stroke="#1200FF"/>
<path d="M1412 148L1408 152L1412 148Z" stroke="#3B96D7"/>
<path d="M1405 210C1405 211.326 1405.53 212.598 1406.46 213.536C1407.4 214.473 1408.67 215 1410 215C1411.33 215 1412.6 214.473 1413.54 213.536C1414.47 212.598 1415 211.326 1415 210C1415 208.674 1414.47 207.402 1413.54 206.464C1412.6 205.527 1411.33 205 1410 205C1408.67 205 1407.4 205.527 1406.46 206.464C1405.53 207.402 1405 208.674 1405 210V210Z" stroke="#2D00A3"/>
<path d="M1405 270C1405 271.326 1405.53 272.598 1406.46 273.536C1407.4 274.473 1408.67 275 1410 275C1411.33 275 1412.6 274.473 1413.54 273.536C1414.47 272.598 1415 271.326 1415 270C1415 268.674 1414.47 267.402 1413.54 266.464C1412.6 265.527 1411.33 265 1410 265C1408.67 265 1407.4 265.527 1406.46 266.464C1405.53 267.402 1405 268.674 1405 270V270Z" stroke="#1200FF"/>
<path d="M1405 330C1405 331.326 1405.53 332.598 1406.46 333.536C1407.4 334.473 1408.67 335 1410 335C1411.33 335 1412.6 334.473 1413.54 333.536C1414.47 332.598 1415 331.326 1415 330C1415 328.674 1414.47 327.402 1413.54 326.464C1412.6 325.527 1411.33 325 1410 325C1408.67 325 1407.4 325.527 1406.46 326.464C1405.53 327.402 1405 328.674 1405 330V330Z" stroke="#2D00A3"/>
<path d="M1412 388L1408 392L1412 388Z" stroke="#1200FF"/>
<path d="M1405 450C1405 451.326 1405.53 452.598 1406.46 453.536C1407.4 454.473 1408.67 455 1410 455C1411.33 455 1412.6 454.473 1413.54 453.536C1414.47 452.598 1415 451.326 1415 450C1415 448.674 1414.47 447.402 1413.54 446.464C1412.6 445.527 1411.33 445 1410 445C1408.67 445 1407.4 445.527 1406.46 446.464C1405.53 447.402 1405 448.674 1405 450V450Z" stroke="#2D00A3"/>
<path d="M1407 510C1407 510.796 1407.32 511.559 1407.88 512.121C1408.44 512.684 1409.2 513 1410 513C1410.8 513 1411.56 512.684 1412.12 512.121C1412.68 511.559 1413 510.796 1413 510C1413 509.204 1412.68 508.441 1412.12 507.879C1411.56 507.316 1410.8 507 1410 507C1409.2 507 1408.44 507.316 1407.88 507.879C1407.32 508.441 1407 509.204 1407 510V510Z" stroke="#1200FF"/>
</g>
</g>
<defs>
<clipPath id="clip0_34_409">
<rect width="1440" height="560" fill="white"/>
</clipPath>
</defs>
</svg>
