<svg width="1440" height="560" viewBox="0 0 1440 560" fill="none" xmlns="http://www.w3.org/2000/svg">
<g clip-path="url(#clip0_35_701)">
<mask id="mask0_35_701" style="mask-type:luminance" maskUnits="userSpaceOnUse" x="0" y="0" width="1440" height="560">
<path d="M1440 0H0V560H1440V0Z" fill="white"/>
</mask>
<g mask="url(#mask0_35_701)">
<path d="M1440 0H0V560H1440V0Z" fill="#5B5B5B"/>
<path d="M0.000183105 544.559C99.5292 533.141 166.544 443.465 244.797 380.912C314.648 325.076 380.431 269.934 433.551 197.996C498.695 109.775 584.534 24.9696 588.556 -84.6224C592.765 -199.313 541.325 -318.552 455.296 -394.517C372.215 -467.88 248.369 -452.743 140.912 -479.901C38.4453 -505.798 -61.4528 -584.143 -161.622 -550.433C-261.656 -516.768 -282.868 -384.089 -359.49 -311.5C-448.29 -227.375 -610.001 -209.978 -644.783 -92.7064C-678.951 22.4956 -589.954 139.136 -522.676 238.698C-462.975 327.048 -375.799 387.696 -283.768 441.551C-195.122 493.425 -102.04 556.265 0.000183105 544.559Z" fill="#353535"/>
<path d="M1440 886.018C1502.88 881.783 1563.68 868.695 1619.08 838.654C1677.76 806.836 1741.86 771.136 1766.37 709.048C1790.62 647.612 1761.52 580.248 1746.46 515.938C1732.66 457.014 1713.07 402.154 1682.31 350.033C1645.63 287.854 1618.35 208.354 1550.47 183.762C1482.43 159.111 1411.7 206.758 1342.16 226.797C1272.23 246.949 1191.54 248.485 1141.73 301.547C1091.43 355.123 1093.33 436.072 1078.2 507.981C1061.95 585.199 1016.41 666.703 1049.85 738.175C1083.29 809.633 1170.94 835.909 1244.72 863.865C1307.25 887.559 1373.29 890.511 1440 886.018Z" fill="#9E9E9E"/>
</g>
</g>
<defs>
<clipPath id="clip0_35_701">
<rect width="1440" height="560" fill="white"/>
</clipPath>
</defs>
</svg>
