<svg width="1440" height="1017" viewBox="0 0 1440 1017" fill="none" xmlns="http://www.w3.org/2000/svg">
<g clip-path="url(#clip0_35_701)">
<mask id="mask0_35_701" style="mask-type:luminance" maskUnits="userSpaceOnUse" x="0" y="0" width="1440" height="1017">
<path d="M1440 0H0V1017H1440V0Z" fill="white"/>
</mask>
<g mask="url(#mask0_35_701)">
<path d="M1440 0H0V1017H1440V0Z" fill="#FEFEFE"/>
<path d="M0.000183105 988.958C99.5292 968.222 166.544 805.364 244.797 691.764C314.648 590.362 380.431 490.22 433.551 359.575C498.695 199.36 584.534 45.3477 588.556 -153.679C592.765 -361.966 541.325 -578.513 455.296 -716.471C372.215 -849.703 248.369 -822.213 140.912 -871.534C38.4452 -918.565 -61.4528 -1060.85 -161.622 -999.625C-261.656 -938.487 -282.868 -697.533 -359.49 -565.706C-448.29 -412.929 -610.001 -381.335 -644.783 -168.36C-678.951 40.8547 -589.954 252.681 -522.676 433.493C-462.975 593.943 -375.799 704.084 -283.768 801.888C-195.122 896.095 -102.04 1010.22 0.000183105 988.958Z" fill="#C9C9C9"/>
<path d="M1440 1609.07C1502.88 1601.38 1563.68 1577.61 1619.08 1523.06C1677.76 1465.27 1741.86 1400.44 1766.37 1287.68C1790.62 1176.11 1761.52 1053.77 1746.46 936.981C1732.66 829.97 1713.07 730.341 1682.31 635.685C1645.63 522.764 1618.35 378.386 1550.47 333.725C1482.43 288.957 1411.7 375.488 1342.16 411.88C1272.23 448.478 1191.54 451.267 1141.73 547.631C1091.43 644.929 1093.33 791.938 1078.2 922.53C1061.95 1062.76 1016.41 1210.78 1049.85 1340.58C1083.29 1470.35 1170.94 1518.07 1244.72 1568.84C1307.25 1611.87 1373.29 1617.23 1440 1609.07Z" fill="#ACACAC"/>
</g>
</g>
<defs>
<clipPath id="clip0_35_701">
<rect width="1440" height="1017" fill="white"/>
</clipPath>
</defs>
</svg>
