<svg width="5433" height="490" viewBox="0 0 5433 490" fill="none" xmlns="http://www.w3.org/2000/svg">
<g clip-path="url(#clip0_36_2)">
<path d="M0.000200363 98.0002L-160.769 187.8C-31.3575 236.8 192.034 324.411 452.365 340.711C710.056 357.411 1222.45 425.38 1479.01 401.18C1739.34 376.38 2071.33 449.5 2327.89 449.2C2587.09 449.5 2986.78 277.3 3247.11 318.5C3505.18 359.3 3500.1 408.4 3760.44 449.2C4017.37 490.4 4399.22 457 4655.78 449.2C4915.73 441 5172.67 441 5433 375.7C5691.82 310 5949.89 180 6210.22 122.5C6467.91 65.0002 6727.11 82.0002 6983.67 98.0002C7244 114 7504.33 131 7760.89 138.8C8020.09 147 8277.78 147 8538.11 187.8C8796.18 229 9055 310 9315.33 318.5C9572.27 327 9832.22 261 10088.8 204.2C10348.7 147 10605.7 98.0002 10866 89.8002C11124.8 82.0002 11382.9 114 11643.2 155.2C11900.9 196 12160.1 245 12416.7 277.7C12677 310 12937.3 327 13193.9 302.2C13453.1 278 13710.8 212 13971.1 163.3C14229.2 114 14488 82.0002 14748.3 73.5002C15005.3 65.0002 15265.2 82.0002 15521.8 122.5C15781.7 163 16038.7 229 16299 261.3C16557.8 294 16815.9 294 17076.2 253.2C17333.9 212 17593.1 131 17849.7 147C18110 163 18370.3 278 18498.6 334.8L18627.3 392V0.000244141H18498.2C18368.8 0.000244141 18110 0.000244141 17849.7 0.000244141C17592.7 0.000244141 17332.8 0.000244141 17076.2 0.000244141C16816.3 0.000244141 16559.3 0.000244141 16299 0.000244141C16040.2 0.000244141 15782.1 0.000244141 15521.8 0.000244141C15264.1 0.000244141 15004.9 0.000244141 14748.3 0.000244141C14488 0.000244141 14227.7 0.000244141 13971.1 0.000244141C13711.9 0.000244141 13454.2 0.000244141 13193.9 0.000244141C12935.8 0.000244141 12677 0.000244141 12416.7 0.000244141C12159.7 0.000244141 11899.8 0.000244141 11643.2 0.000244141C11383.3 0.000244141 11126.3 0.000244141 10866 0.000244141C10607.2 0.000244141 10349.1 0.000244141 10088.8 0.000244141C9831.09 0.000244141 9571.89 0.000244141 9315.33 0.000244141C9055 0.000244141 8794.67 0.000244141 8538.11 0.000244141C8278.91 0.000244141 8021.22 0.000244141 7760.89 0.000244141C7502.82 0.000244141 7244 0.000244141 6983.67 0.000244141C6726.73 0.000244141 6466.78 0.000244141 6210.22 0.000244141C5950.27 0.000244141 5693.33 0.000244141 5433 0.000244141C5174.18 0.000244141 4916.11 0.000244141 4655.78 0.000244141C4398.09 0.000244141 4138.89 0.000244141 3882.33 0.000244141C3622 0.000244141 3361.67 0.000244141 3105.11 0.000244141C2845.91 0.000244141 2588.22 0.000244141 2327.89 0.000244141C2069.82 0.000244141 1811 0.000244141 1550.67 0.000244141C1293.73 0.000244141 1033.78 0.000244141 777.221 0.000244141C517.267 0.000244141 260.331 0.000244141 128.279 0.000244141H0.000200363V98.0002Z" fill="url(#paint0_linear_36_2)"/>
<path opacity="0.9" d="M0 196L129.411 204.2C258.822 212 405.918 268.022 666.249 284.022C923.939 300.022 1193.93 310.6 1450.49 310.3C1710.82 310.6 2071.33 325.294 2327.89 325.594C2587.09 325.294 2844.78 308.822 3105.11 284.022C3363.18 259.822 3771.02 341.594 4031.36 325.594C4288.29 309.594 4544.78 349.283 4801.34 382.283C5061.29 415.283 5097.1 293.7 5357.43 343C5616.26 391.7 6237.82 358.084 6498.15 382.284C6755.84 407.084 6727.11 457 6983.67 449.2C7244 441 7504.33 441 7760.89 432.8C8020.09 425 8277.78 408 8538.11 351.2C8796.18 294 9055 196 9315.33 196C9572.27 196 9832.22 294 10088.8 343C10348.7 392 10605.7 392 10866 359.3C11124.8 327 11382.9 261 11643.2 228.7C11900.9 196 12160.1 196 12416.7 179.7C12677 163 12937.3 131 13193.9 130.7C13453.1 131 13710.8 163 13971.1 163.3C14229.2 163 14488 131 14748.3 114.3C15005.3 98.0004 15265.2 98.0004 15521.8 130.7C15781.7 163 16038.7 229 16299 294C16557.8 359 16815.9 425 17076.2 408.3C17333.9 392 17593.1 294 17849.7 228.7C18110 163 18370.3 131 18498.6 114.3L18627.3 98.0004V0.000366211H18498.2C18368.8 0.000366211 18110 0.000366211 17849.7 0.000366211C17592.7 0.000366211 17332.8 0.000366211 17076.2 0.000366211C16816.3 0.000366211 16559.3 0.000366211 16299 0.000366211C16040.2 0.000366211 15782.1 0.000366211 15521.8 0.000366211C15264.1 0.000366211 15004.9 0.000366211 14748.3 0.000366211C14488 0.000366211 14227.7 0.000366211 13971.1 0.000366211C13711.9 0.000366211 13454.2 0.000366211 13193.9 0.000366211C12935.8 0.000366211 12677 0.000366211 12416.7 0.000366211C12159.7 0.000366211 11899.8 0.000366211 11643.2 0.000366211C11383.3 0.000366211 11126.3 0.000366211 10866 0.000366211C10607.2 0.000366211 10349.1 0.000366211 10088.8 0.000366211C9831.09 0.000366211 9571.89 0.000366211 9315.33 0.000366211C9055 0.000366211 8794.67 0.000366211 8538.11 0.000366211C8278.91 0.000366211 8021.22 0.000366211 7760.89 0.000366211C7502.82 0.000366211 7244 0.000366211 6983.67 0.000366211C6726.73 0.000366211 6466.78 0.000366211 6210.22 0.000366211C5950.27 0.000366211 5693.33 0.000366211 5433 0.000366211C5174.18 0.000366211 4916.11 0.000366211 4655.78 0.000366211C4398.09 0.000366211 4138.89 0.000366211 3882.33 0.000366211C3622 0.000366211 3361.67 0.000366211 3105.11 0.000366211C2845.91 0.000366211 2588.22 0.000366211 2327.89 0.000366211C2069.82 0.000366211 1811 0.000366211 1550.67 0.000366211C1293.73 0.000366211 1033.78 0.000366211 777.221 0.000366211C517.267 0.000366211 260.331 0.000366211 128.279 0.000366211H0V196Z" fill="url(#paint1_linear_36_2)"/>
<path opacity="0.8" d="M0 98.0002L129.411 122.5C258.822 147 516.89 196 777.221 204.2C1034.91 212 1294.11 180 1550.67 179.7C1811 180 2071.33 212 2327.89 212.3C2587.09 212 2844.78 180 3105.11 179.7C3363.18 180 3622 212 3882.33 269.5C4139.27 327 4399.22 277.3 4655.78 318.5C4915.73 359.3 4968.77 212.3 5229.1 212.3C5487.93 212.3 6080.97 236.8 6341.3 212.3C6598.99 187.8 7068.61 253.1 7325.17 212.3C7585.5 171.1 7681.74 291.339 7938.3 299.139C8197.5 307.339 8433.69 277.7 8694.02 253.2C8952.09 228.7 9055 196 9315.33 204.2C9572.27 212 9832.22 327 10088.8 392C10348.7 457 10605.7 474 10866 424.7C11124.8 376 11382.9 261 11643.2 253.2C11900.9 245 12160.1 343 12416.7 351.2C12677 359 12937.3 278 13193.9 220.5C13453.1 163 13710.8 131 13971.1 179.7C14229.2 229 14488 359 14748.3 408.3C15005.3 457 15265.2 425 15521.8 351.2C15781.7 278 16038.7 163 16299 114.3C16557.8 65.0002 16815.9 82.0002 17076.2 81.7002C17333.9 82.0002 17593.1 65.0002 17849.7 106.2C18110 147 18370.3 245 18498.6 294L18627.3 343V0.000213623H18498.2C18368.8 0.000213623 18110 0.000213623 17849.7 0.000213623C17592.7 0.000213623 17332.8 0.000213623 17076.2 0.000213623C16816.3 0.000213623 16559.3 0.000213623 16299 0.000213623C16040.2 0.000213623 15782.1 0.000213623 15521.8 0.000213623C15264.1 0.000213623 15004.9 0.000213623 14748.3 0.000213623C14488 0.000213623 14227.7 0.000213623 13971.1 0.000213623C13711.9 0.000213623 13454.2 0.000213623 13193.9 0.000213623C12935.8 0.000213623 12677 0.000213623 12416.7 0.000213623C12159.7 0.000213623 11899.8 0.000213623 11643.2 0.000213623C11383.3 0.000213623 11126.3 0.000213623 10866 0.000213623C10607.2 0.000213623 10349.1 0.000213623 10088.8 0.000213623C9831.09 0.000213623 9571.89 0.000213623 9315.33 0.000213623C9055 0.000213623 8794.67 0.000213623 8538.11 0.000213623C8278.91 0.000213623 8021.22 0.000213623 7760.89 0.000213623C7502.82 0.000213623 7244 0.000213623 6983.67 0.000213623C6726.73 0.000213623 6466.78 0.000213623 6210.22 0.000213623C5950.27 0.000213623 5693.33 0.000213623 5433 0.000213623C5174.18 0.000213623 4916.11 0.000213623 4655.78 0.000213623C4398.09 0.000213623 4138.89 0.000213623 3882.33 0.000213623C3622 0.000213623 3361.67 0.000213623 3105.11 0.000213623C2845.91 0.000213623 2588.22 0.000213623 2327.89 0.000213623C2069.82 0.000213623 1811 0.000213623 1550.67 0.000213623C1293.73 0.000213623 1033.78 0.000213623 777.221 0.000213623C517.267 0.000213623 260.331 0.000213623 128.279 0.000213623H0V98.0002Z" fill="url(#paint2_linear_36_2)"/>
</g>
<defs>
<linearGradient id="paint0_linear_36_2" x1="0.00102203" y1="0.000244141" x2="0.00102203" y2="459.376" gradientUnits="userSpaceOnUse">
<stop stop-color="#444444"/>
<stop offset="1" stop-color="#744A75"/>
</linearGradient>
<linearGradient id="paint1_linear_36_2" x1="0" y1="0.000614137" x2="0" y2="462.169" gradientUnits="userSpaceOnUse">
<stop stop-color="#396BA5"/>
<stop offset="1" stop-color="#0F9AE8"/>
</linearGradient>
<linearGradient id="paint2_linear_36_2" x1="0" y1="-2.00272e-05" x2="0" y2="490" gradientUnits="userSpaceOnUse">
<stop stop-color="#AA2AA5"/>
<stop offset="1" stop-color="#EF97F1"/>
</linearGradient>
<clipPath id="clip0_36_2">
<rect width="5433" height="490" fill="white" transform="matrix(1 0 0 -1 0 490)"/>
</clipPath>
</defs>
</svg>
