<?xml version="1.0" standalone="no"?>
<svg xmlns:xlink="http://www.w3.org/1999/xlink" id="wave" style="transform:rotate(180deg); transition: 0.3s" viewBox="0 0 1440 490" version="1.1" xmlns="http://www.w3.org/2000/svg"><defs><linearGradient id="sw-gradient-0" x1="0" x2="0" y1="1" y2="0"><stop stop-color="rgba(55.013, 49.264, 47.418, 1)" offset="0%"/><stop stop-color="rgba(101.894, 96.177, 102.825, 1)" offset="100%"/></linearGradient></defs><path style="transform:translate(0, 0px); opacity:1" fill="url(#sw-gradient-0)" d="M0,392L34.3,343C68.6,294,137,196,206,179.7C274.3,163,343,229,411,253.2C480,278,549,261,617,261.3C685.7,261,754,278,823,236.8C891.4,196,960,98,1029,57.2C1097.1,16,1166,33,1234,40.8C1302.9,49,1371,49,1440,114.3C1508.6,180,1577,310,1646,367.5C1714.3,425,1783,408,1851,392C1920,376,1989,359,2057,351.2C2125.7,343,2194,343,2263,302.2C2331.4,261,2400,180,2469,171.5C2537.1,163,2606,229,2674,285.8C2742.9,343,2811,392,2880,400.2C2948.6,408,3017,376,3086,334.8C3154.3,294,3223,245,3291,212.3C3360,180,3429,163,3497,187.8C3565.7,212,3634,278,3703,326.7C3771.4,376,3840,408,3909,416.5C3977.1,425,4046,408,4114,367.5C4182.9,327,4251,261,4320,228.7C4388.6,196,4457,196,4526,236.8C4594.3,278,4663,359,4731,343C4800,327,4869,212,4903,155.2L4937.1,98L4937.1,490L4902.9,490C4868.6,490,4800,490,4731,490C4662.9,490,4594,490,4526,490C4457.1,490,4389,490,4320,490C4251.4,490,4183,490,4114,490C4045.7,490,3977,490,3909,490C3840,490,3771,490,3703,490C3634.3,490,3566,490,3497,490C3428.6,490,3360,490,3291,490C3222.9,490,3154,490,3086,490C3017.1,490,2949,490,2880,490C2811.4,490,2743,490,2674,490C2605.7,490,2537,490,2469,490C2400,490,2331,490,2263,490C2194.3,490,2126,490,2057,490C1988.6,490,1920,490,1851,490C1782.9,490,1714,490,1646,490C1577.1,490,1509,490,1440,490C1371.4,490,1303,490,1234,490C1165.7,490,1097,490,1029,490C960,490,891,490,823,490C754.3,490,686,490,617,490C548.6,490,480,490,411,490C342.9,490,274,490,206,490C137.1,490,69,490,34,490L0,490Z"/><defs><linearGradient id="sw-gradient-1" x1="0" x2="0" y1="1" y2="0"><stop stop-color="rgba(124.691, 113.245, 255, 1)" offset="0%"/><stop stop-color="rgba(170.633, 146.923, 241.709, 1)" offset="100%"/></linearGradient></defs><path style="transform:translate(0, 50px); opacity:0.9" fill="url(#sw-gradient-1)" d="M0,294L34.3,285.8C68.6,278,137,261,206,245C274.3,229,343,212,411,212.3C480,212,549,229,617,228.7C685.7,229,754,212,823,236.8C891.4,261,960,327,1029,343C1097.1,359,1166,327,1234,294C1302.9,261,1371,229,1440,179.7C1508.6,131,1577,65,1646,40.8C1714.3,16,1783,33,1851,40.8C1920,49,1989,49,2057,57.2C2125.7,65,2194,82,2263,138.8C2331.4,196,2400,294,2469,294C2537.1,294,2606,196,2674,147C2742.9,98,2811,98,2880,130.7C2948.6,163,3017,229,3086,261.3C3154.3,294,3223,294,3291,310.3C3360,327,3429,359,3497,359.3C3565.7,359,3634,327,3703,326.7C3771.4,327,3840,359,3909,375.7C3977.1,392,4046,392,4114,359.3C4182.9,327,4251,261,4320,196C4388.6,131,4457,65,4526,81.7C4594.3,98,4663,196,4731,261.3C4800,327,4869,359,4903,375.7L4937.1,392L4937.1,490L4902.9,490C4868.6,490,4800,490,4731,490C4662.9,490,4594,490,4526,490C4457.1,490,4389,490,4320,490C4251.4,490,4183,490,4114,490C4045.7,490,3977,490,3909,490C3840,490,3771,490,3703,490C3634.3,490,3566,490,3497,490C3428.6,490,3360,490,3291,490C3222.9,490,3154,490,3086,490C3017.1,490,2949,490,2880,490C2811.4,490,2743,490,2674,490C2605.7,490,2537,490,2469,490C2400,490,2331,490,2263,490C2194.3,490,2126,490,2057,490C1988.6,490,1920,490,1851,490C1782.9,490,1714,490,1646,490C1577.1,490,1509,490,1440,490C1371.4,490,1303,490,1234,490C1165.7,490,1097,490,1029,490C960,490,891,490,823,490C754.3,490,686,490,617,490C548.6,490,480,490,411,490C342.9,490,274,490,206,490C137.1,490,69,490,34,490L0,490Z"/><defs><linearGradient id="sw-gradient-2" x1="0" x2="0" y1="1" y2="0"><stop stop-color="rgba(244.442, 108.926, 255, 1)" offset="0%"/><stop stop-color="rgba(247.442, 183.799, 255, 1)" offset="100%"/></linearGradient></defs><path style="transform:translate(0, 100px); opacity:0.8" fill="url(#sw-gradient-2)" d="M0,392L34.3,367.5C68.6,343,137,294,206,285.8C274.3,278,343,310,411,310.3C480,310,549,278,617,277.7C685.7,278,754,310,823,310.3C891.4,310,960,278,1029,220.5C1097.1,163,1166,82,1234,40.8C1302.9,0,1371,0,1440,0C1508.6,0,1577,0,1646,24.5C1714.3,49,1783,98,1851,138.8C1920,180,1989,212,2057,204.2C2125.7,196,2194,147,2263,171.5C2331.4,196,2400,294,2469,285.8C2537.1,278,2606,163,2674,98C2742.9,33,2811,16,2880,65.3C2948.6,114,3017,229,3086,236.8C3154.3,245,3223,147,3291,138.8C3360,131,3429,212,3497,269.5C3565.7,327,3634,359,3703,310.3C3771.4,261,3840,131,3909,81.7C3977.1,33,4046,65,4114,138.8C4182.9,212,4251,327,4320,375.7C4388.6,425,4457,408,4526,408.3C4594.3,408,4663,425,4731,383.8C4800,343,4869,245,4903,196L4937.1,147L4937.1,490L4902.9,490C4868.6,490,4800,490,4731,490C4662.9,490,4594,490,4526,490C4457.1,490,4389,490,4320,490C4251.4,490,4183,490,4114,490C4045.7,490,3977,490,3909,490C3840,490,3771,490,3703,490C3634.3,490,3566,490,3497,490C3428.6,490,3360,490,3291,490C3222.9,490,3154,490,3086,490C3017.1,490,2949,490,2880,490C2811.4,490,2743,490,2674,490C2605.7,490,2537,490,2469,490C2400,490,2331,490,2263,490C2194.3,490,2126,490,2057,490C1988.6,490,1920,490,1851,490C1782.9,490,1714,490,1646,490C1577.1,490,1509,490,1440,490C1371.4,490,1303,490,1234,490C1165.7,490,1097,490,1029,490C960,490,891,490,823,490C754.3,490,686,490,617,490C548.6,490,480,490,411,490C342.9,490,274,490,206,490C137.1,490,69,490,34,490L0,490Z"/></svg>